<svg xmlns="http://www.w3.org/2000/svg" xmlns:xlink="http://www.w3.org/1999/xlink" width="200" zoomAndPan="magnify" viewBox="0 0 150 149.999998" height="200" preserveAspectRatio="xMidYMid meet" version="1.0"><defs><clipPath id="8aa60cee48"><path d="M 18.324219 3.710938 L 131.574219 3.710938 L 131.574219 146.210938 L 18.324219 146.210938 Z M 18.324219 3.710938 " clip-rule="nonzero"/></clipPath></defs><path fill="#ffffff" d="M 81.816406 11.191406 C 81.855469 11.242188 81.78125 11.140625 81.816406 11.191406 Z M 81.816406 11.191406 " fill-opacity="1" fill-rule="nonzero"/><path fill="#ffffff" d="M 128.660156 53.179688 L 128.65625 53.179688 C 128.683594 53.191406 128.714844 53.207031 128.660156 53.179688 Z M 128.660156 53.179688 " fill-opacity="1" fill-rule="nonzero"/><g clip-path="url(#8aa60cee48)"><path fill="#ffffff" d="M 130.261719 50.085938 C 128.285156 48.953125 125.898438 47.410156 123.542969 45.875 C 121.179688 44.339844 118.734375 42.746094 116.242188 41.269531 C 113.101562 39.410156 109.980469 38.40625 106.910156 38.242188 C 109.023438 33.722656 108.777344 27.046875 108.730469 26.070312 C 108.71875 25.859375 108.671875 25.652344 108.582031 25.460938 C 108.496094 25.265625 108.378906 25.089844 108.230469 24.9375 C 108.078125 24.789062 107.90625 24.667969 107.710938 24.578125 C 107.515625 24.492188 107.3125 24.441406 107.101562 24.425781 C 106.886719 24.414062 106.679688 24.4375 106.476562 24.503906 C 106.273438 24.566406 106.085938 24.664062 105.917969 24.796875 C 105.75 24.929688 105.613281 25.085938 105.503906 25.269531 C 105.394531 25.453125 105.320312 25.648438 105.28125 25.859375 C 105.277344 25.890625 103.910156 29.066406 94.015625 31.832031 C 94.050781 30.589844 93.949219 29.355469 93.722656 28.136719 C 93.492188 26.914062 93.136719 25.730469 92.65625 24.582031 C 92.171875 23.4375 91.578125 22.355469 90.867188 21.335938 C 90.152344 20.316406 89.34375 19.382812 88.433594 18.535156 C 86.019531 16.277344 83.8125 13.828125 81.816406 11.191406 C 80.742188 9.789062 79.851562 8.28125 79.144531 6.664062 C 78.96875 6.230469 78.734375 5.832031 78.441406 5.46875 C 78.148438 5.105469 77.808594 4.792969 77.421875 4.53125 C 77.035156 4.269531 76.621094 4.070312 76.175781 3.929688 C 75.730469 3.792969 75.273438 3.722656 74.804688 3.71875 C 74.339844 3.71875 73.882812 3.785156 73.433594 3.917969 C 72.988281 4.054688 72.570312 4.25 72.179688 4.507812 C 71.792969 4.769531 71.449219 5.078125 71.15625 5.441406 C 70.859375 5.800781 70.621094 6.195312 70.445312 6.628906 C 69.28125 9.453125 65.714844 14.566406 60.378906 19.617188 C 59.039062 20.855469 57.945312 22.285156 57.105469 23.90625 C 56.269531 25.527344 55.730469 27.246094 55.496094 29.054688 C 51.082031 28.21875 45.972656 28.609375 40.554688 29.027344 L 39.089844 29.140625 C 38.886719 29.15625 38.695312 29.207031 38.507812 29.289062 C 38.324219 29.371094 38.15625 29.484375 38.011719 29.625 C 37.867188 29.769531 37.746094 29.929688 37.660156 30.113281 C 37.570312 30.296875 37.515625 30.488281 37.492188 30.691406 C 37.472656 30.890625 37.484375 31.089844 37.53125 31.289062 C 37.582031 31.484375 37.660156 31.667969 37.773438 31.839844 C 37.886719 32.007812 38.027344 32.152344 38.1875 32.273438 C 38.351562 32.394531 38.53125 32.484375 38.726562 32.539062 C 39.484375 32.8125 40.195312 33.175781 40.859375 33.628906 C 41.523438 34.082031 42.121094 34.613281 42.648438 35.21875 C 43.175781 35.828125 43.621094 36.492188 43.976562 37.210938 C 44.335938 37.933594 44.59375 38.6875 44.757812 39.476562 C 44.886719 40.074219 45.007812 40.589844 45.128906 41.0625 C 43.257812 41.167969 41.425781 41.5 39.636719 42.058594 C 36.835938 42.90625 34.3125 44.164062 31.871094 45.378906 C 27.996094 47.308594 24.335938 49.132812 20.246094 48.910156 C 20.097656 48.902344 19.949219 48.910156 19.800781 48.941406 C 19.65625 48.972656 19.515625 49.019531 19.382812 49.085938 C 19.246094 49.152344 19.125 49.234375 19.011719 49.332031 C 18.898438 49.429688 18.800781 49.539062 18.714844 49.664062 C 18.628906 49.785156 18.5625 49.917969 18.511719 50.058594 C 18.464844 50.199219 18.429688 50.34375 18.417969 50.496094 C 18.40625 50.644531 18.410156 50.792969 18.4375 50.9375 C 18.460938 51.085938 18.503906 51.226562 18.566406 51.363281 C 19.421875 53.03125 20.609375 54.410156 22.132812 55.5 C 23.914062 56.820312 26.765625 58.199219 30.902344 58.199219 C 32.121094 58.195312 33.324219 58.085938 34.523438 57.871094 C 39.507812 57.003906 42.875 56.960938 45.015625 57.144531 C 44.824219 57.496094 44.671875 57.863281 44.5625 58.25 C 44.457031 58.636719 44.394531 59.027344 44.375 59.429688 C 44.359375 59.832031 44.386719 60.226562 44.460938 60.621094 C 44.535156 61.015625 44.652344 61.394531 44.816406 61.761719 C 44.976562 62.128906 45.175781 62.472656 45.417969 62.792969 C 45.660156 63.117188 45.933594 63.40625 46.242188 63.660156 C 46.546875 63.917969 46.878906 64.140625 47.238281 64.320312 C 47.597656 64.5 47.96875 64.640625 48.359375 64.734375 C 48.886719 66.4375 49.457031 70.746094 44.085938 75.316406 C 39.890625 78.917969 36.382812 83.097656 33.566406 87.855469 C 29.761719 94.359375 28.105469 100.941406 28.640625 107.414062 C 29.628906 119.332031 37.992188 130.226562 53.5 139.8125 L 52.320312 143.128906 C 52.257812 143.308594 52.21875 143.492188 52.199219 143.675781 C 52.179688 143.863281 52.183594 144.050781 52.207031 144.238281 C 52.234375 144.425781 52.28125 144.605469 52.351562 144.78125 C 52.417969 144.957031 52.507812 145.121094 52.617188 145.273438 C 52.726562 145.425781 52.851562 145.566406 52.992188 145.691406 C 53.132812 145.8125 53.289062 145.917969 53.453125 146.003906 C 53.621094 146.09375 53.796875 146.15625 53.980469 146.203125 C 54.164062 146.246094 54.347656 146.269531 54.535156 146.269531 L 95.363281 146.269531 C 95.554688 146.269531 95.746094 146.246094 95.929688 146.199219 C 96.117188 146.15625 96.292969 146.085938 96.460938 145.996094 C 96.628906 145.910156 96.785156 145.800781 96.929688 145.671875 C 97.070312 145.546875 97.195312 145.402344 97.304688 145.246094 C 97.414062 145.085938 97.5 144.917969 97.566406 144.738281 C 97.632812 144.558594 97.675781 144.375 97.699219 144.1875 C 97.722656 143.996094 97.71875 143.804688 97.695312 143.617188 C 97.671875 143.425781 97.625 143.242188 97.554688 143.066406 L 96.28125 139.792969 C 111.761719 130.210938 120.113281 119.324219 121.101562 107.417969 C 121.636719 100.945312 119.980469 94.363281 116.175781 87.855469 C 113.359375 83.097656 109.851562 78.917969 105.65625 75.320312 C 100.417969 70.859375 100.832031 66.648438 101.339844 64.871094 C 101.765625 64.839844 102.179688 64.757812 102.585938 64.628906 C 102.992188 64.496094 103.375 64.316406 103.734375 64.089844 C 104.097656 63.863281 104.425781 63.597656 104.722656 63.292969 C 105.019531 62.984375 105.273438 62.648438 105.484375 62.277344 C 105.699219 61.910156 105.863281 61.519531 105.984375 61.113281 C 106.101562 60.703125 106.167969 60.285156 106.183594 59.859375 C 106.199219 59.433594 106.164062 59.011719 106.078125 58.59375 C 105.988281 58.179688 105.855469 57.777344 105.667969 57.394531 C 108.535156 56.691406 111.003906 55.28125 113.066406 53.167969 C 117.511719 48.582031 127.679688 52.761719 128.65625 53.175781 C 128.632812 53.164062 128.609375 53.148438 128.660156 53.175781 C 129.496094 53.644531 130.710938 53.441406 131.183594 52.605469 C 131.65625 51.773438 131.09375 50.5625 130.261719 50.085938 Z M 105.128906 30.820312 C 104.824219 34.078125 104.015625 37.589844 102.324219 38.644531 C 101.863281 38.75 101.398438 38.871094 100.941406 39.015625 C 92.113281 41.835938 86.691406 51.253906 85.082031 54.421875 L 77.402344 54.421875 C 78.511719 49.75 82.246094 38.269531 92.445312 35.832031 C 98.882812 34.289062 102.777344 32.460938 105.128906 30.820312 Z M 62.769531 22.140625 C 64.585938 20.421875 66.300781 18.605469 67.910156 16.6875 L 67.910156 22.917969 C 67.910156 23.148438 67.953125 23.367188 68.042969 23.582031 C 68.128906 23.792969 68.257812 23.980469 68.417969 24.144531 C 68.582031 24.308594 68.769531 24.433594 68.984375 24.523438 C 69.195312 24.609375 69.417969 24.65625 69.648438 24.65625 C 69.878906 24.65625 70.101562 24.609375 70.3125 24.523438 C 70.527344 24.433594 70.714844 24.308594 70.878906 24.144531 C 71.039062 23.980469 71.167969 23.792969 71.253906 23.582031 C 71.34375 23.367188 71.386719 23.148438 71.386719 22.917969 L 71.386719 12.074219 C 71.992188 11.167969 72.546875 10.230469 73.046875 9.261719 L 73.046875 27.589844 C 73.046875 27.820312 73.089844 28.042969 73.179688 28.253906 C 73.269531 28.46875 73.394531 28.65625 73.554688 28.820312 C 73.71875 28.980469 73.90625 29.105469 74.121094 29.195312 C 74.332031 29.285156 74.554688 29.328125 74.785156 29.328125 C 75.015625 29.328125 75.238281 29.285156 75.449219 29.195312 C 75.664062 29.105469 75.851562 28.980469 76.015625 28.820312 C 76.179688 28.65625 76.304688 28.46875 76.390625 28.253906 C 76.480469 28.042969 76.523438 27.820312 76.523438 27.589844 L 76.523438 9.296875 C 77.15625 10.511719 77.871094 11.671875 78.675781 12.78125 L 78.675781 24.085938 C 78.675781 24.316406 78.71875 24.535156 78.808594 24.75 C 78.898438 24.960938 79.023438 25.152344 79.183594 25.3125 C 79.347656 25.476562 79.535156 25.601562 79.75 25.691406 C 79.960938 25.777344 80.183594 25.824219 80.414062 25.824219 C 80.644531 25.824219 80.867188 25.777344 81.078125 25.691406 C 81.292969 25.601562 81.480469 25.476562 81.644531 25.3125 C 81.808594 25.152344 81.933594 24.960938 82.019531 24.75 C 82.109375 24.535156 82.152344 24.316406 82.152344 24.085938 L 82.152344 17.082031 C 83.332031 18.390625 84.632812 19.726562 86.042969 21.0625 C 86.835938 21.800781 87.539062 22.621094 88.144531 23.523438 C 88.75 24.421875 89.246094 25.378906 89.628906 26.394531 C 90.015625 27.40625 90.28125 28.453125 90.425781 29.527344 C 90.570312 30.605469 90.59375 31.683594 90.488281 32.761719 C 84.699219 34.53125 79.976562 38.96875 76.785156 45.671875 C 75.683594 48.007812 74.8125 50.425781 74.179688 52.929688 C 72.578125 51.1875 70.320312 47.921875 68.703125 42.296875 C 66.699219 35.3125 63.261719 31.742188 58.882812 30.015625 C 59.140625 26.988281 60.445312 24.339844 62.769531 22.140625 Z M 44.597656 32.21875 C 49.285156 31.910156 53.378906 31.863281 56.683594 32.902344 C 61.019531 34.265625 63.695312 37.457031 65.359375 43.257812 C 66.917969 48.679688 69.058594 52.207031 70.871094 54.421875 L 61.625 54.421875 C 60.878906 51.785156 58.777344 46.222656 53.75 43.144531 C 52.222656 42.210938 50.578125 41.59375 48.816406 41.285156 C 48.546875 40.445312 48.324219 39.597656 48.152344 38.734375 C 47.628906 36.203125 46.445312 34.03125 44.597656 32.21875 Z M 33.925781 54.445312 C 28.550781 55.386719 25.328125 53.753906 23.558594 52.195312 C 27.105469 51.636719 30.304688 50.042969 33.421875 48.492188 C 35.734375 47.339844 38.125 46.148438 40.648438 45.382812 C 45.117188 44.027344 48.910156 44.265625 51.917969 46.101562 C 55.402344 48.222656 57.175781 52.050781 57.980469 54.421875 L 49.601562 54.421875 C 49.460938 54.421875 49.328125 54.429688 49.191406 54.441406 C 47.691406 53.878906 43.300781 52.8125 33.925781 54.445312 Z M 56.128906 142.792969 L 56.835938 140.804688 L 92.945312 140.804688 L 93.71875 142.792969 Z M 93.652344 137.328125 L 56.09375 137.328125 C 53.527344 135.78125 51.050781 134.109375 48.660156 132.308594 L 101.082031 132.308594 C 98.691406 134.109375 96.214844 135.78125 93.648438 137.328125 Z M 113.175781 89.609375 C 116.613281 95.488281 118.113281 101.382812 117.636719 107.128906 C 117.230469 112.058594 115.371094 116.820312 112.070312 121.414062 L 68.105469 121.414062 C 67.875 121.414062 67.652344 121.457031 67.441406 121.546875 C 67.226562 121.636719 67.039062 121.761719 66.875 121.925781 C 66.710938 122.085938 66.585938 122.273438 66.5 122.488281 C 66.410156 122.699219 66.367188 122.921875 66.367188 123.152344 C 66.367188 123.382812 66.410156 123.605469 66.5 123.816406 C 66.585938 124.03125 66.710938 124.21875 66.875 124.382812 C 67.039062 124.546875 67.226562 124.671875 67.441406 124.757812 C 67.652344 124.847656 67.875 124.890625 68.105469 124.890625 L 109.265625 124.890625 C 108.019531 126.277344 106.699219 127.589844 105.308594 128.832031 L 44.433594 128.832031 C 43.042969 127.589844 41.722656 126.277344 40.472656 124.890625 L 53.617188 124.890625 C 53.847656 124.890625 54.070312 124.847656 54.285156 124.757812 C 54.496094 124.671875 54.683594 124.546875 54.847656 124.382812 C 55.011719 124.21875 55.136719 124.03125 55.222656 123.816406 C 55.3125 123.605469 55.355469 123.382812 55.355469 123.152344 C 55.355469 122.921875 55.3125 122.699219 55.222656 122.488281 C 55.136719 122.273438 55.011719 122.085938 54.847656 121.925781 C 54.683594 121.761719 54.496094 121.636719 54.285156 121.546875 C 54.070312 121.457031 53.847656 121.414062 53.617188 121.414062 L 37.671875 121.414062 C 34.378906 116.828125 32.523438 112.066406 32.105469 107.128906 C 31.628906 101.382812 33.128906 95.488281 36.566406 89.609375 C 36.945312 88.964844 37.335938 88.347656 37.730469 87.746094 L 112.011719 87.746094 C 112.40625 88.347656 112.796875 88.964844 113.175781 89.609375 Z M 104.835938 79.246094 C 106.5 80.8125 108.046875 82.488281 109.480469 84.269531 L 40.265625 84.269531 C 41.695312 82.488281 43.242188 80.8125 44.910156 79.246094 Z M 101.179688 75.769531 L 48.5625 75.769531 C 52.03125 71.765625 52.5 67.71875 51.984375 64.886719 L 97.753906 64.886719 C 97.242188 67.71875 97.710938 71.765625 101.179688 75.769531 Z M 100.960938 61.410156 L 49.601562 61.410156 C 49.371094 61.410156 49.148438 61.363281 48.933594 61.273438 C 48.722656 61.179688 48.535156 61.054688 48.371094 60.890625 C 48.210938 60.726562 48.085938 60.535156 47.996094 60.320312 C 47.910156 60.109375 47.867188 59.886719 47.867188 59.65625 C 47.867188 59.425781 47.910156 59.203125 47.996094 58.988281 C 48.085938 58.773438 48.210938 58.585938 48.371094 58.421875 C 48.535156 58.257812 48.722656 58.128906 48.933594 58.039062 C 49.148438 57.949219 49.371094 57.902344 49.601562 57.898438 L 100.898438 57.898438 C 100.960938 57.902344 101.050781 57.90625 101.164062 57.910156 C 101.382812 57.9375 101.59375 58.003906 101.789062 58.109375 C 101.988281 58.21875 102.15625 58.355469 102.300781 58.527344 C 102.445312 58.699219 102.550781 58.890625 102.621094 59.101562 C 102.691406 59.316406 102.71875 59.535156 102.707031 59.757812 C 102.695312 59.980469 102.640625 60.191406 102.546875 60.394531 C 102.453125 60.597656 102.324219 60.777344 102.160156 60.929688 C 102 61.085938 101.8125 61.203125 101.605469 61.285156 C 101.398438 61.367188 101.183594 61.410156 100.960938 61.410156 Z M 110.570312 50.746094 C 106.628906 54.816406 101.167969 54.433594 101.109375 54.425781 C 101.0625 54.425781 101.011719 54.417969 100.960938 54.417969 L 89.046875 54.417969 C 91.121094 50.835938 95.625 44.359375 102.011719 42.324219 C 105.972656 41.0625 110.167969 41.710938 114.46875 44.261719 C 116.25 45.3125 118.015625 46.4375 119.75 47.558594 C 116.472656 47.472656 113.046875 48.191406 110.570312 50.746094 Z M 110.570312 50.746094 " fill-opacity="1" fill-rule="nonzero"/></g><path fill="#ffffff" d="M 47.378906 116.171875 C 48.132812 116.171875 48.875 116.097656 49.613281 115.953125 C 50.351562 115.804688 51.066406 115.585938 51.761719 115.300781 C 52.457031 115.011719 53.117188 114.660156 53.742188 114.242188 C 54.367188 113.824219 54.945312 113.347656 55.480469 112.816406 C 56.011719 112.285156 56.484375 111.707031 56.902344 111.082031 C 57.320312 110.457031 57.675781 109.796875 57.960938 109.101562 C 58.25 108.40625 58.46875 107.691406 58.613281 106.953125 C 58.761719 106.214844 58.832031 105.46875 58.832031 104.71875 C 58.832031 103.964844 58.761719 103.222656 58.613281 102.484375 C 58.46875 101.746094 58.25 101.03125 57.960938 100.335938 C 57.675781 99.640625 57.320312 98.980469 56.902344 98.355469 C 56.484375 97.730469 56.011719 97.152344 55.480469 96.617188 C 54.945312 96.085938 54.367188 95.613281 53.742188 95.195312 C 53.117188 94.777344 52.457031 94.425781 51.761719 94.136719 C 51.066406 93.847656 50.351562 93.632812 49.613281 93.484375 C 48.875 93.335938 48.132812 93.265625 47.378906 93.265625 C 46.628906 93.265625 45.882812 93.335938 45.144531 93.484375 C 44.40625 93.632812 43.691406 93.847656 42.996094 94.136719 C 42.300781 94.425781 41.640625 94.777344 41.015625 95.195312 C 40.390625 95.613281 39.8125 96.085938 39.28125 96.617188 C 38.75 97.152344 38.273438 97.730469 37.855469 98.355469 C 37.4375 98.980469 37.085938 99.640625 36.796875 100.335938 C 36.511719 101.03125 36.292969 101.746094 36.144531 102.484375 C 36 103.222656 35.925781 103.964844 35.925781 104.71875 C 35.925781 105.46875 36 106.214844 36.148438 106.953125 C 36.296875 107.6875 36.511719 108.40625 36.800781 109.097656 C 37.089844 109.792969 37.441406 110.453125 37.859375 111.078125 C 38.277344 111.703125 38.753906 112.28125 39.285156 112.8125 C 39.816406 113.34375 40.394531 113.820312 41.019531 114.238281 C 41.644531 114.65625 42.304688 115.007812 43 115.296875 C 43.691406 115.585938 44.410156 115.800781 45.144531 115.949219 C 45.882812 116.097656 46.628906 116.171875 47.378906 116.171875 Z M 47.378906 96.742188 C 47.902344 96.742188 48.421875 96.792969 48.9375 96.894531 C 49.449219 96.996094 49.949219 97.148438 50.433594 97.347656 C 50.917969 97.546875 51.375 97.792969 51.8125 98.085938 C 52.246094 98.375 52.648438 98.707031 53.019531 99.078125 C 53.390625 99.449219 53.722656 99.851562 54.011719 100.285156 C 54.304688 100.722656 54.550781 101.179688 54.75 101.664062 C 54.949219 102.148438 55.101562 102.648438 55.203125 103.160156 C 55.304688 103.675781 55.355469 104.195312 55.355469 104.71875 C 55.355469 105.242188 55.304688 105.761719 55.203125 106.273438 C 55.101562 106.789062 54.949219 107.285156 54.75 107.769531 C 54.550781 108.253906 54.304688 108.714844 54.011719 109.148438 C 53.722656 109.585938 53.390625 109.988281 53.019531 110.359375 C 52.648438 110.730469 52.246094 111.058594 51.8125 111.351562 C 51.375 111.640625 50.917969 111.886719 50.433594 112.085938 C 49.949219 112.289062 49.449219 112.4375 48.9375 112.542969 C 48.421875 112.644531 47.902344 112.695312 47.378906 112.695312 C 46.855469 112.695312 46.335938 112.644531 45.824219 112.542969 C 45.308594 112.4375 44.8125 112.289062 44.328125 112.085938 C 43.84375 111.886719 43.382812 111.640625 42.949219 111.351562 C 42.511719 111.058594 42.109375 110.730469 41.738281 110.359375 C 41.367188 109.988281 41.039062 109.585938 40.746094 109.148438 C 40.457031 108.714844 40.210938 108.253906 40.011719 107.769531 C 39.808594 107.285156 39.660156 106.789062 39.554688 106.273438 C 39.453125 105.761719 39.402344 105.242188 39.402344 104.71875 C 39.402344 104.195312 39.457031 103.675781 39.558594 103.164062 C 39.660156 102.648438 39.8125 102.152344 40.011719 101.667969 C 40.214844 101.183594 40.460938 100.722656 40.75 100.289062 C 41.042969 99.851562 41.371094 99.449219 41.742188 99.082031 C 42.113281 98.710938 42.515625 98.378906 42.949219 98.089844 C 43.386719 97.796875 43.84375 97.550781 44.328125 97.351562 C 44.8125 97.148438 45.3125 97 45.824219 96.894531 C 46.335938 96.792969 46.855469 96.742188 47.378906 96.742188 Z M 47.378906 96.742188 " fill-opacity="1" fill-rule="nonzero"/><path fill="#ffffff" d="M 47.378906 110.378906 C 47.75 110.378906 48.121094 110.339844 48.484375 110.269531 C 48.847656 110.195312 49.203125 110.089844 49.546875 109.945312 C 49.886719 109.804688 50.214844 109.628906 50.523438 109.421875 C 50.832031 109.21875 51.117188 108.980469 51.382812 108.71875 C 51.644531 108.457031 51.878906 108.171875 52.085938 107.863281 C 52.292969 107.554688 52.464844 107.226562 52.609375 106.882812 C 52.75 106.539062 52.859375 106.1875 52.929688 105.820312 C 53.003906 105.457031 53.039062 105.089844 53.039062 104.71875 C 53.039062 104.347656 53.003906 103.980469 52.929688 103.613281 C 52.859375 103.25 52.75 102.894531 52.609375 102.550781 C 52.464844 102.210938 52.292969 101.882812 52.085938 101.574219 C 51.878906 101.265625 51.644531 100.980469 51.382812 100.714844 C 51.117188 100.453125 50.832031 100.21875 50.523438 100.011719 C 50.214844 99.804688 49.890625 99.632812 49.546875 99.488281 C 49.203125 99.347656 48.847656 99.238281 48.484375 99.167969 C 48.121094 99.09375 47.75 99.058594 47.378906 99.058594 C 47.007812 99.058594 46.640625 99.09375 46.277344 99.167969 C 45.910156 99.238281 45.558594 99.347656 45.214844 99.488281 C 44.871094 99.632812 44.546875 99.804688 44.234375 100.011719 C 43.925781 100.21875 43.640625 100.453125 43.378906 100.714844 C 43.117188 100.980469 42.882812 101.265625 42.675781 101.574219 C 42.46875 101.882812 42.292969 102.210938 42.152344 102.550781 C 42.007812 102.894531 41.902344 103.25 41.828125 103.613281 C 41.757812 103.976562 41.722656 104.347656 41.722656 104.71875 C 41.722656 105.089844 41.757812 105.457031 41.832031 105.820312 C 41.902344 106.1875 42.011719 106.539062 42.152344 106.882812 C 42.296875 107.226562 42.46875 107.550781 42.675781 107.859375 C 42.882812 108.167969 43.117188 108.453125 43.378906 108.71875 C 43.644531 108.980469 43.929688 109.214844 44.238281 109.421875 C 44.546875 109.628906 44.871094 109.800781 45.214844 109.945312 C 45.558594 110.085938 45.910156 110.195312 46.277344 110.265625 C 46.640625 110.339844 47.007812 110.375 47.378906 110.378906 Z M 47.378906 102.535156 C 47.667969 102.535156 47.949219 102.589844 48.214844 102.703125 C 48.480469 102.8125 48.71875 102.96875 48.921875 103.175781 C 49.128906 103.378906 49.285156 103.617188 49.394531 103.882812 C 49.507812 104.148438 49.5625 104.429688 49.5625 104.71875 C 49.5625 105.007812 49.507812 105.285156 49.394531 105.554688 C 49.285156 105.820312 49.128906 106.054688 48.921875 106.261719 C 48.71875 106.464844 48.484375 106.625 48.214844 106.734375 C 47.949219 106.84375 47.667969 106.898438 47.378906 106.898438 C 47.089844 106.898438 46.8125 106.84375 46.542969 106.734375 C 46.277344 106.625 46.042969 106.464844 45.835938 106.261719 C 45.632812 106.054688 45.472656 105.820312 45.363281 105.554688 C 45.253906 105.285156 45.199219 105.007812 45.199219 104.71875 C 45.199219 104.429688 45.253906 104.152344 45.363281 103.882812 C 45.476562 103.617188 45.632812 103.378906 45.835938 103.175781 C 46.042969 102.972656 46.277344 102.8125 46.546875 102.703125 C 46.8125 102.589844 47.089844 102.535156 47.378906 102.535156 Z M 47.378906 102.535156 " fill-opacity="1" fill-rule="nonzero"/><path fill="#ffffff" d="M 74.90625 116.171875 C 75.65625 116.171875 76.402344 116.097656 77.140625 115.953125 C 77.875 115.804688 78.59375 115.585938 79.289062 115.300781 C 79.980469 115.011719 80.640625 114.660156 81.269531 114.242188 C 81.894531 113.824219 82.472656 113.347656 83.003906 112.816406 C 83.535156 112.285156 84.011719 111.707031 84.429688 111.082031 C 84.847656 110.457031 85.199219 109.796875 85.488281 109.101562 C 85.773438 108.40625 85.992188 107.691406 86.136719 106.953125 C 86.285156 106.214844 86.359375 105.46875 86.359375 104.71875 C 86.359375 103.964844 86.285156 103.222656 86.136719 102.484375 C 85.992188 101.746094 85.773438 101.03125 85.488281 100.335938 C 85.199219 99.640625 84.847656 98.980469 84.429688 98.355469 C 84.011719 97.730469 83.535156 97.152344 83.003906 96.617188 C 82.472656 96.085938 81.894531 95.613281 81.269531 95.195312 C 80.644531 94.777344 79.984375 94.425781 79.289062 94.136719 C 78.59375 93.847656 77.875 93.632812 77.140625 93.484375 C 76.402344 93.335938 75.65625 93.265625 74.90625 93.265625 C 74.152344 93.265625 73.40625 93.335938 72.671875 93.484375 C 71.933594 93.632812 71.214844 93.847656 70.523438 94.136719 C 69.828125 94.425781 69.167969 94.777344 68.542969 95.195312 C 67.914062 95.613281 67.335938 96.085938 66.804688 96.617188 C 66.273438 97.152344 65.800781 97.730469 65.382812 98.355469 C 64.964844 98.980469 64.609375 99.640625 64.324219 100.335938 C 64.035156 101.03125 63.816406 101.746094 63.671875 102.484375 C 63.523438 103.222656 63.449219 103.964844 63.449219 104.71875 C 63.453125 105.46875 63.527344 106.214844 63.671875 106.953125 C 63.820312 107.6875 64.039062 108.40625 64.328125 109.097656 C 64.613281 109.792969 64.96875 110.453125 65.386719 111.078125 C 65.804688 111.703125 66.277344 112.28125 66.808594 112.8125 C 67.339844 113.34375 67.917969 113.820312 68.542969 114.238281 C 69.167969 114.65625 69.828125 115.007812 70.523438 115.296875 C 71.21875 115.585938 71.933594 115.800781 72.671875 115.949219 C 73.40625 116.097656 74.152344 116.171875 74.90625 116.171875 Z M 74.90625 96.742188 C 75.429688 96.742188 75.945312 96.792969 76.460938 96.894531 C 76.972656 96.996094 77.472656 97.148438 77.957031 97.347656 C 78.441406 97.546875 78.902344 97.792969 79.335938 98.085938 C 79.773438 98.375 80.175781 98.707031 80.546875 99.078125 C 80.914062 99.449219 81.246094 99.851562 81.535156 100.285156 C 81.828125 100.722656 82.074219 101.179688 82.273438 101.664062 C 82.476562 102.148438 82.625 102.648438 82.726562 103.160156 C 82.832031 103.675781 82.882812 104.195312 82.882812 104.71875 C 82.882812 105.242188 82.832031 105.761719 82.726562 106.273438 C 82.625 106.789062 82.476562 107.285156 82.273438 107.769531 C 82.074219 108.253906 81.828125 108.714844 81.539062 109.148438 C 81.246094 109.585938 80.914062 109.988281 80.546875 110.359375 C 80.175781 110.730469 79.773438 111.058594 79.335938 111.351562 C 78.902344 111.640625 78.441406 111.886719 77.957031 112.085938 C 77.472656 112.289062 76.972656 112.4375 76.460938 112.542969 C 75.945312 112.644531 75.429688 112.695312 74.90625 112.695312 C 74.382812 112.695312 73.863281 112.644531 73.347656 112.542969 C 72.835938 112.4375 72.335938 112.289062 71.851562 112.085938 C 71.367188 111.886719 70.910156 111.640625 70.472656 111.351562 C 70.039062 111.058594 69.632812 110.730469 69.265625 110.359375 C 68.894531 109.988281 68.5625 109.585938 68.273438 109.148438 C 67.980469 108.714844 67.734375 108.253906 67.535156 107.769531 C 67.335938 107.285156 67.183594 106.789062 67.082031 106.273438 C 66.980469 105.761719 66.925781 105.242188 66.925781 104.71875 C 66.929688 104.195312 66.980469 103.675781 67.082031 103.164062 C 67.183594 102.648438 67.335938 102.152344 67.539062 101.667969 C 67.738281 101.183594 67.984375 100.722656 68.273438 100.289062 C 68.566406 99.851562 68.894531 99.449219 69.265625 99.082031 C 69.636719 98.710938 70.039062 98.378906 70.476562 98.089844 C 70.910156 97.796875 71.371094 97.550781 71.851562 97.351562 C 72.335938 97.148438 72.835938 97 73.347656 96.894531 C 73.863281 96.792969 74.378906 96.742188 74.90625 96.742188 Z M 74.90625 96.742188 " fill-opacity="1" fill-rule="nonzero"/><path fill="#ffffff" d="M 74.90625 110.378906 C 75.277344 110.378906 75.644531 110.339844 76.007812 110.269531 C 76.371094 110.195312 76.726562 110.089844 77.070312 109.945312 C 77.414062 109.804688 77.738281 109.628906 78.046875 109.421875 C 78.355469 109.21875 78.644531 108.980469 78.90625 108.71875 C 79.167969 108.457031 79.402344 108.171875 79.609375 107.863281 C 79.816406 107.554688 79.992188 107.226562 80.132812 106.882812 C 80.273438 106.539062 80.382812 106.1875 80.453125 105.820312 C 80.527344 105.457031 80.5625 105.089844 80.5625 104.71875 C 80.5625 104.347656 80.527344 103.980469 80.453125 103.613281 C 80.382812 103.25 80.273438 102.894531 80.132812 102.550781 C 79.992188 102.210938 79.816406 101.882812 79.609375 101.574219 C 79.402344 101.265625 79.167969 100.980469 78.90625 100.714844 C 78.644531 100.453125 78.359375 100.21875 78.046875 100.011719 C 77.738281 99.804688 77.414062 99.632812 77.070312 99.488281 C 76.726562 99.347656 76.375 99.238281 76.007812 99.167969 C 75.644531 99.09375 75.277344 99.058594 74.90625 99.058594 C 74.53125 99.058594 74.164062 99.09375 73.800781 99.167969 C 73.4375 99.238281 73.082031 99.347656 72.738281 99.488281 C 72.394531 99.632812 72.070312 99.804688 71.761719 100.011719 C 71.453125 100.21875 71.164062 100.453125 70.902344 100.714844 C 70.640625 100.980469 70.40625 101.265625 70.199219 101.574219 C 69.992188 101.882812 69.820312 102.210938 69.675781 102.550781 C 69.535156 102.894531 69.425781 103.25 69.355469 103.613281 C 69.28125 103.976562 69.246094 104.347656 69.246094 104.71875 C 69.246094 105.089844 69.28125 105.457031 69.355469 105.820312 C 69.429688 106.1875 69.535156 106.539062 69.679688 106.882812 C 69.820312 107.226562 69.996094 107.550781 70.203125 107.859375 C 70.40625 108.167969 70.640625 108.453125 70.90625 108.71875 C 71.167969 108.980469 71.453125 109.214844 71.761719 109.421875 C 72.070312 109.628906 72.398438 109.800781 72.738281 109.945312 C 73.082031 110.085938 73.4375 110.195312 73.800781 110.265625 C 74.164062 110.339844 74.53125 110.375 74.90625 110.378906 Z M 74.90625 102.535156 C 75.195312 102.535156 75.472656 102.589844 75.738281 102.703125 C 76.007812 102.8125 76.242188 102.96875 76.449219 103.175781 C 76.652344 103.378906 76.808594 103.617188 76.921875 103.882812 C 77.03125 104.148438 77.085938 104.429688 77.085938 104.71875 C 77.085938 105.007812 77.03125 105.285156 76.921875 105.554688 C 76.808594 105.820312 76.652344 106.054688 76.449219 106.261719 C 76.242188 106.464844 76.007812 106.625 75.738281 106.734375 C 75.472656 106.84375 75.195312 106.898438 74.90625 106.898438 C 74.617188 106.898438 74.335938 106.84375 74.070312 106.734375 C 73.800781 106.625 73.566406 106.464844 73.363281 106.261719 C 73.15625 106.054688 73 105.820312 72.886719 105.554688 C 72.777344 105.285156 72.722656 105.007812 72.722656 104.71875 C 72.722656 104.429688 72.777344 104.152344 72.890625 103.882812 C 73 103.617188 73.15625 103.378906 73.363281 103.175781 C 73.566406 102.972656 73.800781 102.8125 74.070312 102.703125 C 74.335938 102.589844 74.613281 102.535156 74.90625 102.535156 Z M 74.90625 102.535156 " fill-opacity="1" fill-rule="nonzero"/><path fill="#ffffff" d="M 102.429688 116.171875 C 103.179688 116.171875 103.925781 116.097656 104.664062 115.953125 C 105.402344 115.804688 106.117188 115.585938 106.8125 115.300781 C 107.507812 115.011719 108.167969 114.660156 108.792969 114.242188 C 109.417969 113.824219 109.996094 113.347656 110.527344 112.816406 C 111.058594 112.285156 111.535156 111.707031 111.953125 111.082031 C 112.371094 110.457031 112.722656 109.796875 113.011719 109.101562 C 113.300781 108.40625 113.515625 107.691406 113.664062 106.953125 C 113.808594 106.214844 113.882812 105.46875 113.882812 104.71875 C 113.882812 103.964844 113.808594 103.222656 113.664062 102.484375 C 113.515625 101.746094 113.300781 101.03125 113.011719 100.335938 C 112.722656 99.640625 112.371094 98.980469 111.953125 98.355469 C 111.535156 97.730469 111.058594 97.152344 110.527344 96.617188 C 109.996094 96.085938 109.417969 95.613281 108.792969 95.195312 C 108.167969 94.777344 107.507812 94.425781 106.8125 94.136719 C 106.117188 93.847656 105.402344 93.632812 104.664062 93.484375 C 103.925781 93.335938 103.179688 93.265625 102.429688 93.265625 C 101.675781 93.265625 100.933594 93.335938 100.195312 93.484375 C 99.457031 93.632812 98.742188 93.847656 98.046875 94.136719 C 97.351562 94.425781 96.691406 94.777344 96.066406 95.195312 C 95.441406 95.613281 94.863281 96.085938 94.332031 96.617188 C 93.796875 97.152344 93.324219 97.730469 92.90625 98.355469 C 92.488281 98.980469 92.136719 99.640625 91.847656 100.335938 C 91.558594 101.03125 91.34375 101.746094 91.195312 102.484375 C 91.050781 103.222656 90.976562 103.964844 90.976562 104.71875 C 90.976562 105.46875 91.050781 106.214844 91.199219 106.953125 C 91.34375 107.6875 91.5625 108.40625 91.851562 109.097656 C 92.140625 109.792969 92.492188 110.453125 92.910156 111.078125 C 93.328125 111.703125 93.800781 112.28125 94.335938 112.8125 C 94.867188 113.34375 95.445312 113.820312 96.070312 114.238281 C 96.695312 114.65625 97.355469 115.007812 98.046875 115.296875 C 98.742188 115.585938 99.457031 115.800781 100.195312 115.949219 C 100.933594 116.097656 101.675781 116.171875 102.429688 116.171875 Z M 102.429688 96.742188 C 102.953125 96.742188 103.472656 96.792969 103.984375 96.894531 C 104.5 96.996094 104.996094 97.148438 105.480469 97.347656 C 105.964844 97.546875 106.425781 97.792969 106.859375 98.085938 C 107.296875 98.375 107.699219 98.707031 108.070312 99.078125 C 108.441406 99.449219 108.769531 99.851562 109.0625 100.285156 C 109.351562 100.722656 109.597656 101.179688 109.800781 101.664062 C 110 102.148438 110.152344 102.648438 110.253906 103.160156 C 110.355469 103.675781 110.40625 104.195312 110.40625 104.71875 C 110.40625 105.242188 110.355469 105.761719 110.253906 106.273438 C 110.152344 106.789062 110 107.285156 109.800781 107.769531 C 109.597656 108.253906 109.351562 108.714844 109.0625 109.148438 C 108.769531 109.585938 108.441406 109.988281 108.070312 110.359375 C 107.699219 110.730469 107.296875 111.058594 106.859375 111.351562 C 106.425781 111.640625 105.964844 111.886719 105.480469 112.085938 C 105 112.289062 104.5 112.4375 103.984375 112.542969 C 103.472656 112.644531 102.953125 112.695312 102.429688 112.695312 C 101.90625 112.695312 101.386719 112.644531 100.875 112.542969 C 100.359375 112.4375 99.859375 112.289062 99.375 112.085938 C 98.894531 111.886719 98.433594 111.640625 97.996094 111.351562 C 97.5625 111.058594 97.160156 110.730469 96.789062 110.359375 C 96.417969 109.988281 96.085938 109.585938 95.796875 109.148438 C 95.503906 108.714844 95.261719 108.253906 95.058594 107.769531 C 94.859375 107.285156 94.707031 106.789062 94.605469 106.273438 C 94.503906 105.761719 94.453125 105.242188 94.453125 104.71875 C 94.453125 104.195312 94.503906 103.675781 94.605469 103.164062 C 94.710938 102.648438 94.863281 102.152344 95.0625 101.667969 C 95.261719 101.183594 95.507812 100.722656 95.800781 100.289062 C 96.089844 99.851562 96.421875 99.449219 96.792969 99.082031 C 97.160156 98.710938 97.5625 98.378906 98 98.089844 C 98.433594 97.796875 98.894531 97.550781 99.378906 97.351562 C 99.863281 97.148438 100.359375 97 100.875 96.894531 C 101.386719 96.792969 101.90625 96.742188 102.429688 96.742188 Z M 102.429688 96.742188 " fill-opacity="1" fill-rule="nonzero"/><path fill="#ffffff" d="M 102.429688 110.378906 C 102.800781 110.378906 103.167969 110.339844 103.53125 110.269531 C 103.898438 110.195312 104.25 110.089844 104.59375 109.945312 C 104.9375 109.804688 105.265625 109.628906 105.574219 109.421875 C 105.882812 109.21875 106.167969 108.980469 106.429688 108.71875 C 106.695312 108.457031 106.929688 108.171875 107.132812 107.863281 C 107.339844 107.554688 107.515625 107.226562 107.65625 106.882812 C 107.800781 106.539062 107.90625 106.1875 107.980469 105.820312 C 108.050781 105.457031 108.089844 105.089844 108.089844 104.71875 C 108.089844 104.347656 108.050781 103.980469 107.980469 103.613281 C 107.90625 103.25 107.800781 102.894531 107.65625 102.550781 C 107.515625 102.210938 107.339844 101.882812 107.136719 101.574219 C 106.929688 101.265625 106.695312 100.980469 106.429688 100.714844 C 106.167969 100.453125 105.882812 100.21875 105.574219 100.011719 C 105.265625 99.804688 104.9375 99.632812 104.59375 99.488281 C 104.25 99.347656 103.898438 99.238281 103.535156 99.167969 C 103.167969 99.09375 102.800781 99.058594 102.429688 99.058594 C 102.058594 99.058594 101.691406 99.09375 101.324219 99.167969 C 100.960938 99.238281 100.605469 99.347656 100.265625 99.488281 C 99.921875 99.632812 99.59375 99.804688 99.285156 100.011719 C 98.976562 100.21875 98.691406 100.453125 98.429688 100.714844 C 98.164062 100.980469 97.929688 101.265625 97.722656 101.574219 C 97.515625 101.882812 97.34375 102.210938 97.199219 102.550781 C 97.058594 102.894531 96.953125 103.25 96.878906 103.613281 C 96.804688 103.976562 96.769531 104.347656 96.769531 104.71875 C 96.769531 105.089844 96.808594 105.457031 96.878906 105.820312 C 96.953125 106.1875 97.058594 106.539062 97.203125 106.882812 C 97.34375 107.226562 97.519531 107.550781 97.726562 107.859375 C 97.933594 108.167969 98.167969 108.453125 98.429688 108.71875 C 98.691406 108.980469 98.976562 109.214844 99.285156 109.421875 C 99.59375 109.628906 99.921875 109.800781 100.265625 109.945312 C 100.609375 110.085938 100.960938 110.195312 101.324219 110.265625 C 101.691406 110.339844 102.058594 110.375 102.429688 110.378906 Z M 102.429688 102.535156 C 102.71875 102.535156 102.996094 102.589844 103.265625 102.703125 C 103.53125 102.8125 103.769531 102.96875 103.972656 103.175781 C 104.175781 103.378906 104.335938 103.617188 104.445312 103.882812 C 104.554688 104.148438 104.613281 104.429688 104.613281 104.71875 C 104.613281 105.007812 104.554688 105.285156 104.445312 105.554688 C 104.335938 105.820312 104.175781 106.054688 103.972656 106.261719 C 103.769531 106.464844 103.53125 106.625 103.265625 106.734375 C 102.996094 106.84375 102.71875 106.898438 102.429688 106.898438 C 102.140625 106.898438 101.863281 106.84375 101.59375 106.734375 C 101.328125 106.625 101.089844 106.464844 100.886719 106.261719 C 100.679688 106.054688 100.523438 105.820312 100.414062 105.554688 C 100.300781 105.285156 100.246094 105.007812 100.246094 104.71875 C 100.246094 104.429688 100.304688 104.152344 100.414062 103.882812 C 100.523438 103.617188 100.683594 103.378906 100.886719 103.175781 C 101.089844 102.972656 101.328125 102.8125 101.59375 102.703125 C 101.863281 102.589844 102.140625 102.535156 102.429688 102.535156 Z M 102.429688 102.535156 " fill-opacity="1" fill-rule="nonzero"/><path fill="#ffffff" d="M 59.667969 67.753906 L 55.546875 67.753906 C 55.316406 67.753906 55.097656 67.796875 54.882812 67.886719 C 54.671875 67.976562 54.484375 68.101562 54.320312 68.265625 C 54.15625 68.425781 54.03125 68.613281 53.941406 68.828125 C 53.855469 69.039062 53.808594 69.261719 53.808594 69.492188 C 53.808594 69.722656 53.855469 69.945312 53.941406 70.160156 C 54.03125 70.371094 54.15625 70.558594 54.320312 70.722656 C 54.484375 70.886719 54.671875 71.011719 54.882812 71.097656 C 55.097656 71.1875 55.316406 71.230469 55.546875 71.230469 L 59.667969 71.230469 C 59.898438 71.230469 60.121094 71.1875 60.335938 71.097656 C 60.546875 71.011719 60.734375 70.886719 60.898438 70.722656 C 61.0625 70.558594 61.1875 70.371094 61.277344 70.160156 C 61.363281 69.945312 61.40625 69.722656 61.40625 69.492188 C 61.40625 69.261719 61.363281 69.039062 61.277344 68.828125 C 61.1875 68.613281 61.0625 68.425781 60.898438 68.265625 C 60.734375 68.101562 60.546875 67.976562 60.335938 67.886719 C 60.121094 67.796875 59.898438 67.753906 59.667969 67.753906 Z M 59.667969 67.753906 " fill-opacity="1" fill-rule="nonzero"/><path fill="#ffffff" d="M 86.621094 67.753906 L 65.53125 67.753906 C 65.300781 67.753906 65.078125 67.796875 64.863281 67.886719 C 64.652344 67.976562 64.464844 68.101562 64.300781 68.265625 C 64.136719 68.425781 64.011719 68.613281 63.925781 68.828125 C 63.835938 69.039062 63.792969 69.261719 63.792969 69.492188 C 63.792969 69.722656 63.835938 69.945312 63.925781 70.160156 C 64.011719 70.371094 64.136719 70.558594 64.300781 70.722656 C 64.464844 70.886719 64.652344 71.011719 64.863281 71.097656 C 65.078125 71.1875 65.300781 71.230469 65.53125 71.230469 L 86.621094 71.230469 C 86.851562 71.230469 87.074219 71.1875 87.289062 71.097656 C 87.5 71.011719 87.6875 70.886719 87.851562 70.722656 C 88.015625 70.558594 88.140625 70.371094 88.230469 70.160156 C 88.316406 69.945312 88.359375 69.722656 88.359375 69.492188 C 88.359375 69.261719 88.316406 69.039062 88.230469 68.828125 C 88.140625 68.613281 88.015625 68.425781 87.851562 68.265625 C 87.6875 68.101562 87.5 67.976562 87.289062 67.886719 C 87.074219 67.796875 86.851562 67.753906 86.621094 67.753906 Z M 86.621094 67.753906 " fill-opacity="1" fill-rule="nonzero"/></svg>