<svg xmlns="http://www.w3.org/2000/svg" xmlns:xlink="http://www.w3.org/1999/xlink" width="200" zoomAndPan="magnify" viewBox="0 0 150 149.999998" height="200" preserveAspectRatio="xMidYMid meet" version="1.0"><defs><clipPath id="cdf9254404"><path d="M 8.039062 25 L 63 25 L 63 143 L 8.039062 143 Z M 8.039062 25 " clip-rule="nonzero"/></clipPath><clipPath id="2e052660f9"><path d="M 8.039062 26 L 15 26 L 15 35 L 8.039062 35 Z M 8.039062 26 " clip-rule="nonzero"/></clipPath></defs><path fill="#ffffff" d="M 88.808594 49.027344 C 86.066406 43.296875 86.574219 37.691406 89.480469 32.195312 C 90.96875 30.527344 92.21875 28.582031 94.246094 27.515625 C 98.484375 25.277344 103.128906 25.0625 107.769531 25.222656 C 113.695312 25.429688 119.1875 27.421875 124.589844 29.679688 C 126.351562 30.800781 128.164062 31.847656 129.863281 33.050781 C 139.460938 39.878906 141.941406 49.546875 140.792969 60.648438 C 140.351562 64.914062 139.15625 69.03125 138.417969 73.238281 C 134.351562 86.121094 132.453125 99.242188 133.894531 112.757812 C 134.414062 117.664062 134.234375 122.546875 133.355469 127.398438 C 130.957031 140.773438 115.613281 146.492188 104.253906 138.550781 C 95.894531 132.707031 95.089844 122.378906 99.289062 113.785156 C 102.351562 107.515625 107.238281 102.5625 110.882812 96.730469 C 114.253906 91.335938 116.820312 85.714844 115.171875 79.152344 C 113.839844 73.804688 110.457031 69.761719 106.355469 66.257812 C 100.535156 61.300781 94.136719 56.984375 89.660156 50.609375 C 89.34375 50.097656 89.0625 49.570312 88.808594 49.027344 Z M 88.808594 49.027344 " fill-opacity="1" fill-rule="nonzero"/><path fill="#ffffff" d="M 93.484375 68.402344 C 93.484375 68.390625 93.484375 68.382812 93.484375 68.371094 L 93.4375 68.371094 C 93.332031 68.332031 93.222656 68.300781 93.109375 68.273438 C 92.847656 68.402344 92.582031 68.519531 92.316406 68.625 L 90.710938 68.984375 C 90.542969 69.023438 90.375 69.054688 90.207031 69.085938 C 89.957031 69.097656 89.707031 69.089844 89.457031 69.070312 L 87.882812 69.351562 C 87.617188 69.414062 87.351562 69.457031 87.085938 69.496094 C 86.5 69.539062 85.90625 69.5625 85.320312 69.578125 C 84.730469 69.59375 84.207031 69.507812 83.648438 69.433594 C 81.289062 69.480469 78.925781 69.480469 76.566406 69.589844 C 74.035156 69.707031 72.734375 70.996094 72.636719 73.546875 C 72.550781 75.671875 72.527344 77.796875 72.5625 79.925781 C 72.285156 83.0625 71.125 83.015625 65.886719 82.957031 C 65.539062 82.957031 65.191406 82.925781 64.851562 82.855469 C 64.535156 82.71875 64.269531 82.519531 64.054688 82.253906 C 63.835938 81.988281 63.695312 81.6875 63.625 81.355469 C 63.613281 81.160156 63.613281 80.964844 63.625 80.769531 C 63.71875 78.359375 63.644531 75.941406 63.585938 73.527344 C 63.503906 70.183594 61.746094 67.914062 58.378906 66.765625 C 58.738281 68.070312 58.988281 69.398438 59.128906 70.746094 C 59.074219 71.300781 59.050781 71.855469 59.0625 72.414062 C 59.0625 73.722656 58.972656 75.035156 58.917969 76.34375 C 58.917969 78.621094 58.917969 80.898438 58.960938 83.171875 C 59.019531 86.007812 60.351562 87.363281 63.125 87.460938 C 63.996094 87.492188 64.875 87.460938 65.75 87.460938 C 72.726562 87.503906 72.667969 87.503906 72.578125 94.441406 C 72.578125 95.277344 72.417969 95.824219 72.097656 96.171875 C 71.71875 96.347656 71.320312 96.421875 70.90625 96.390625 C 68.222656 96.34375 65.546875 96.34375 62.878906 96.382812 C 61.347656 96.382812 60 96.875 58.824219 97.855469 C 57.589844 98.65625 56.691406 99.738281 56.136719 101.101562 C 56.109375 101.152344 56.089844 101.203125 56.078125 101.261719 C 55.957031 101.601562 55.859375 101.949219 55.792969 102.300781 L 58.609375 101.667969 C 63.207031 100.640625 67.867188 101.242188 72.496094 101.054688 C 75.515625 100.9375 76.8125 99.695312 76.929688 96.742188 C 76.953125 96.230469 76.957031 95.710938 76.957031 95.210938 C 76.992188 94.003906 77.007812 92.792969 77 91.582031 C 77.152344 87.359375 77.996094 87.40625 83.84375 87.476562 C 84.105469 87.476562 84.367188 87.492188 84.628906 87.527344 C 85.855469 88.089844 86.046875 89.445312 86.109375 92.453125 C 86.109375 93.292969 86.121094 94.128906 86.140625 94.964844 C 86.140625 95.726562 86.140625 96.480469 86.203125 97.230469 C 86.226562 98.074219 86.382812 98.890625 86.671875 99.683594 C 86.734375 99.863281 86.796875 100.042969 86.875 100.21875 L 86.902344 100.21875 C 87.71875 101.929688 89.25 103.164062 91.5 103.929688 C 90.007812 98.609375 90.675781 93.253906 90.617188 87.929688 C 90.59375 86.019531 90.308594 84.964844 89.554688 84.296875 C 88.886719 83.445312 87.8125 83.007812 86.296875 82.949219 C 85.433594 82.914062 84.574219 82.949219 83.710938 82.949219 C 76.84375 82.910156 76.910156 82.910156 76.996094 76.082031 C 77.015625 74.316406 77.652344 73.835938 79.277344 73.914062 C 81.691406 74.03125 84.101562 74.058594 86.515625 74.007812 C 87.632812 73.984375 88.6875 73.726562 89.6875 73.234375 C 90.683594 72.738281 91.53125 72.054688 92.222656 71.179688 C 92.765625 70.535156 93.261719 69.851562 93.707031 69.132812 C 93.957031 68.726562 93.773438 68.523438 93.484375 68.402344 Z M 93.484375 68.402344 " fill-opacity="1" fill-rule="nonzero"/><g clip-path="url(#cdf9254404)"><path fill="#ffffff" d="M 61.988281 36.429688 L 62.03125 36.492188 C 60.382812 33.734375 59.417969 30.558594 56.535156 28.550781 C 50.695312 24.476562 44.28125 24.671875 37.714844 25.628906 C 32.574219 26.378906 27.855469 28.386719 23.207031 30.59375 L 23.089844 30.660156 L 22.167969 31.128906 C 21.058594 31.96875 19.953125 32.8125 18.839844 33.644531 C 12.988281 38.027344 9.726562 43.847656 8.800781 51.105469 C 8.253906 55.519531 8.730469 59.867188 9.15625 64.203125 C 9.285156 64.921875 9.410156 65.644531 9.539062 66.363281 C 9.609375 66.460938 9.675781 66.5625 9.734375 66.667969 C 9.734375 66.710938 9.6875 66.785156 9.664062 66.84375 C 10.632812 70.945312 11.539062 75.054688 12.578125 79.132812 C 14.582031 87.015625 16.378906 94.90625 16.253906 103.125 C 16.203125 105.921875 15.261719 108.640625 15.476562 111.398438 C 15.835938 116.082031 15.703125 120.75 15.492188 125.421875 C 15.644531 126.191406 15.773438 126.957031 15.945312 127.726562 C 17.421875 134.238281 21.125 138.96875 27.515625 141.085938 C 34.351562 143.351562 40.75 142.265625 46.367188 137.546875 L 46.882812 136.816406 L 46.847656 136.816406 C 52.554688 131.578125 53.84375 125.152344 51.746094 117.929688 C 50.269531 112.890625 47.253906 108.695312 44.039062 104.59375 C 40.496094 100.0625 37.035156 95.457031 35.089844 89.9375 C 33.921875 86.609375 33.195312 83.285156 34.042969 79.707031 C 35.796875 72.316406 41.171875 67.761719 46.667969 63.28125 C 52.898438 58.21875 59.304688 53.328125 62.152344 45.351562 C 62.210938 44.980469 62.265625 44.605469 62.324219 44.234375 C 62.953125 41.605469 62.320312 39.03125 61.988281 36.429688 Z M 61.988281 36.429688 " fill-opacity="1" fill-rule="nonzero"/></g><path fill="#ffffff" d="M 67.96875 94.242188 C 66.664062 94 65.84375 93.253906 65.851562 91.964844 C 65.851562 90.742188 66.402344 89.820312 67.894531 89.9375 C 69.230469 90.03125 70.039062 90.65625 70.039062 92.023438 C 70.039062 93.390625 69.175781 94.003906 67.96875 94.242188 Z M 67.96875 94.242188 " fill-opacity="1" fill-rule="nonzero"/><path fill="#ffffff" d="M 83.621094 78.644531 C 83.316406 79.828125 82.664062 80.691406 81.308594 80.539062 C 80.136719 80.402344 79.425781 79.601562 79.5 78.410156 C 79.585938 77.085938 80.449219 76.351562 81.757812 76.476562 C 82.933594 76.589844 83.527344 77.425781 83.621094 78.644531 Z M 83.621094 78.644531 " fill-opacity="1" fill-rule="nonzero"/><path fill="#ffffff" d="M 83.660156 91.914062 C 83.402344 93.253906 82.621094 94.152344 81.273438 94.132812 C 80.074219 94.113281 79.433594 93.160156 79.453125 92.027344 C 79.46875 90.714844 80.277344 89.960938 81.597656 89.976562 C 82.832031 89.992188 83.417969 90.808594 83.660156 91.914062 Z M 83.660156 91.914062 " fill-opacity="1" fill-rule="nonzero"/><path fill="#ffffff" d="M 46.351562 137.554688 L 46.867188 136.828125 Z M 46.351562 137.554688 " fill-opacity="1" fill-rule="nonzero"/><path fill="#ffffff" d="M 48.894531 14.898438 C 49.691406 12.34375 50.1875 9.691406 52.242188 7.660156 C 56.476562 3.496094 61.824219 4.355469 64.246094 9.695312 C 66.390625 14.410156 64.375 20.835938 59.957031 23.433594 C 53.378906 25.363281 49.363281 22.253906 48.894531 14.898438 Z M 48.894531 14.898438 " fill-opacity="1" fill-rule="nonzero"/><path fill="#ffffff" d="M 91.578125 24.019531 C 85.355469 22.933594 82.097656 13.859375 86.398438 7.550781 C 88.542969 4.394531 93.394531 4.207031 96.589844 7.0625 C 99.375 9.550781 100.332031 12.84375 100.539062 16.4375 C 99.457031 22.082031 97.214844 23.976562 91.578125 24.019531 Z M 91.578125 24.019531 " fill-opacity="1" fill-rule="nonzero"/><path fill="#ffffff" d="M 43.332031 18.507812 C 39.242188 22.066406 37.699219 21.640625 34.109375 15.953125 C 34.523438 13.773438 34.925781 11.664062 36.761719 10.03125 C 39.519531 7.578125 42.910156 8.285156 44.191406 11.765625 C 45.066406 14.136719 44.628906 16.363281 43.332031 18.507812 Z M 43.332031 18.507812 " fill-opacity="1" fill-rule="nonzero"/><path fill="#ffffff" d="M 114.875 14.386719 C 114.859375 14.816406 114.875 15.25 114.824219 15.679688 C 114.597656 18.015625 113.597656 19.96875 111.226562 20.523438 C 108.703125 21.136719 106.96875 19.605469 105.710938 17.566406 C 105.429688 17.03125 105.191406 16.480469 104.996094 15.910156 C 104.820312 11.644531 106.222656 9.015625 108.867188 8.585938 C 111.410156 8.179688 113.636719 10.328125 114.875 14.386719 Z M 114.875 14.386719 " fill-opacity="1" fill-rule="nonzero"/><path fill="#ffffff" d="M 32.613281 16.480469 C 32.945312 21.511719 31.96875 22.980469 27.933594 23.550781 C 25.644531 23.292969 24.488281 21.847656 24.277344 19.707031 C 24.054688 17.320312 24.847656 15.003906 27.035156 14.023438 C 29.394531 12.957031 31.339844 14.308594 32.613281 16.480469 Z M 32.613281 16.480469 " fill-opacity="1" fill-rule="nonzero"/><path fill="#ffffff" d="M 123.027344 23.101562 C 118.214844 24.1875 115.699219 21.125 117.148438 15.933594 C 119.511719 13.410156 121.480469 13.078125 123.414062 14.867188 C 125.886719 17.152344 125.742188 20.214844 123.027344 23.101562 Z M 123.027344 23.101562 " fill-opacity="1" fill-rule="nonzero"/><path fill="#ffffff" d="M 130.335938 20.34375 C 131.902344 20.34375 134.097656 22.460938 134.152344 24.003906 C 134.21875 25.792969 131.804688 28.488281 130.085938 28.539062 C 128.324219 28.59375 126.851562 26.816406 126.847656 24.621094 C 126.847656 22.089844 128.296875 20.3125 130.335938 20.34375 Z M 130.335938 20.34375 " fill-opacity="1" fill-rule="nonzero"/><path fill="#ffffff" d="M 22.660156 24.875 C 22.316406 26.46875 21.910156 28.328125 19.59375 28.519531 C 17.535156 28.683594 15.636719 26.386719 15.699219 23.972656 C 15.746094 21.890625 17.230469 20.1875 18.925781 20.25 C 20.753906 20.3125 22.671875 22.566406 22.660156 24.875 Z M 22.660156 24.875 " fill-opacity="1" fill-rule="nonzero"/><g clip-path="url(#2e052660f9)"><path fill="#ffffff" d="M 14.167969 30.847656 C 13.957031 32.378906 13.40625 34.0625 11.242188 34.289062 C 9.570312 34.460938 8.039062 32.359375 8.039062 30.148438 C 8.039062 27.597656 9.222656 25.910156 10.953125 26.03125 C 12.683594 26.152344 14.199219 28.257812 14.167969 30.847656 Z M 14.167969 30.847656 " fill-opacity="1" fill-rule="nonzero"/></g><path fill="#ffffff" d="M 141.441406 30.0625 C 141.382812 32.511719 139.890625 34.535156 138.167969 34.277344 C 136.046875 33.972656 135.460938 32.316406 135.425781 30.441406 C 135.382812 28.0625 136.917969 26.035156 138.648438 26.066406 C 140.191406 26.09375 141.488281 27.953125 141.441406 30.0625 Z M 141.441406 30.0625 " fill-opacity="1" fill-rule="nonzero"/><path fill="#ffffff" d="M 70 78.640625 C 69.855469 79.84375 69.167969 80.582031 67.945312 80.515625 C 66.808594 80.457031 65.894531 79.847656 65.945312 78.570312 C 65.996094 77.296875 66.78125 76.425781 68.128906 76.507812 C 69.328125 76.582031 69.945312 77.40625 70 78.640625 Z M 70 78.640625 " fill-opacity="1" fill-rule="nonzero"/></svg>