<svg xmlns="http://www.w3.org/2000/svg" xmlns:xlink="http://www.w3.org/1999/xlink" width="200" zoomAndPan="magnify" viewBox="0 0 150 149.999998" height="200" preserveAspectRatio="xMidYMid meet" version="1.0"><defs><clipPath id="f9408efea9"><path d="M 5 2.988281 L 145 2.988281 L 145 146.988281 L 5 146.988281 Z M 5 2.988281 " clip-rule="nonzero"/></clipPath></defs><g clip-path="url(#f9408efea9)"><path fill="#ffffff" d="M 38.867188 144.734375 C 23.089844 139.097656 11.636719 125.070312 7.101562 105.832031 C 5.042969 97.101562 4.460938 82.675781 6.164062 82.675781 C 6.734375 82.675781 8.246094 86.632812 9.53125 91.472656 C 12.339844 102.058594 17.132812 112.015625 21.757812 116.882812 C 29.449219 124.964844 48.488281 128.128906 59.460938 123.148438 C 68.007812 119.269531 71.472656 110.046875 67.757812 101.074219 C 64.882812 94.140625 58.367188 91.824219 46.234375 93.417969 C 46.234375 93.417969 38.796875 85.410156 36.425781 71.195312 L 44.050781 71.886719 C 53.230469 72.71875 60.164062 70.6875 63.761719 66.113281 C 67.144531 61.816406 67.070312 60.152344 63.308594 55.777344 C 57.878906 49.46875 48.128906 51.066406 28.390625 61.503906 L 18.433594 44.8125 L 22.605469 41.625 C 33.070312 33.644531 51.238281 29.65625 61.578125 33.066406 C 70.996094 36.175781 77.90625 48.507812 76.0625 58.910156 C 74.8125 65.941406 69.175781 75.789062 64.820312 78.546875 L 61.0625 80.925781 L 66.25 83.265625 C 75.070312 87.242188 80.453125 84.203125 86.882812 71.613281 C 95.78125 54.199219 101.554688 49.6875 114.976562 49.667969 C 121.226562 49.660156 123.453125 50.316406 128.011719 53.511719 C 139.386719 61.484375 145.582031 77.992188 144.222656 96.714844 C 142.496094 120.425781 131.265625 134.804688 114.476562 134.804688 C 105.257812 134.804688 99.320312 131.574219 94.589844 123.984375 C 90.4375 117.320312 88.566406 104.121094 90.949219 98.3125 C 92.09375 95.527344 92.300781 95.433594 92.375 97.664062 C 92.515625 101.757812 97.175781 108.417969 101.453125 110.632812 C 111.953125 116.0625 127.027344 109.238281 132.992188 96.359375 C 137.519531 86.578125 135.089844 67.71875 128.875 64.390625 C 127.574219 63.695312 124.359375 63.125 121.734375 63.125 C 116.152344 63.125 111.765625 67.140625 105.617188 77.878906 C 103.492188 81.589844 99.917969 86.390625 97.671875 88.539062 C 94.019531 92.035156 92.71875 92.449219 85.417969 92.449219 L 77.25 92.449219 L 79.890625 98.3125 C 83.667969 106.707031 83.492188 120.347656 79.492188 128.652344 C 75.960938 135.988281 67.789062 143.414062 61.261719 145.230469 C 54.902344 146.996094 44.550781 146.765625 38.867188 144.734375 Z M 69.625 31.277344 C 66.011719 25.109375 63.789062 13.601562 66.210938 13.601562 C 69.058594 19.773438 74.890625 25.28125 81.132812 29.121094 C 92.351562 34.550781 103.726562 32.359375 116.152344 22.375 C 118.886719 20.175781 121.308594 18.621094 121.535156 18.921875 C 124.570312 23.628906 129.816406 27.476562 131.550781 32.949219 C 131.550781 35.257812 121.613281 41.902344 113.773438 44.835938 C 94.335938 50.433594 81.105469 48.21875 69.625 31.277344 Z M 79.421875 17.023438 L 92.074219 2.992188 L 106.136719 16.011719 C 101.328125 19.972656 97.855469 26.121094 92.359375 29.238281 C 88.019531 26.039062 81.539062 22.265625 79.421875 17.023438 Z M 79.421875 17.023438 " fill-opacity="1" fill-rule="nonzero"/></g></svg>