<svg xmlns="http://www.w3.org/2000/svg" xmlns:xlink="http://www.w3.org/1999/xlink" width="200" zoomAndPan="magnify" viewBox="0 0 150 149.999998" height="200" preserveAspectRatio="xMidYMid meet" version="1.0"><defs><clipPath id="3dbfbbe296"><path d="M 37 85 L 102 85 L 102 117 L 37 117 Z M 37 85 " clip-rule="nonzero"/></clipPath><clipPath id="83873cfa40"><path d="M 137.09375 -12.269531 L 175.261719 95.152344 L 12.71875 152.90625 L -25.449219 45.484375 Z M 137.09375 -12.269531 " clip-rule="nonzero"/></clipPath><clipPath id="e0ecb80454"><path d="M 137.09375 -12.269531 L 175.261719 95.152344 L 12.71875 152.90625 L -25.449219 45.484375 Z M 137.09375 -12.269531 " clip-rule="nonzero"/></clipPath><clipPath id="5e09ee3fbe"><path d="M 129 10 L 147 10 L 147 23 L 129 23 Z M 129 10 " clip-rule="nonzero"/></clipPath><clipPath id="5e337607fa"><path d="M 137.09375 -12.269531 L 175.261719 95.152344 L 12.71875 152.90625 L -25.449219 45.484375 Z M 137.09375 -12.269531 " clip-rule="nonzero"/></clipPath><clipPath id="e6cdb70bef"><path d="M 137.09375 -12.269531 L 175.261719 95.152344 L 12.71875 152.90625 L -25.449219 45.484375 Z M 137.09375 -12.269531 " clip-rule="nonzero"/></clipPath><clipPath id="d795e9f54a"><path d="M 114 13 L 141 13 L 141 35 L 114 35 Z M 114 13 " clip-rule="nonzero"/></clipPath><clipPath id="11f611f32e"><path d="M 137.09375 -12.269531 L 175.261719 95.152344 L 12.71875 152.90625 L -25.449219 45.484375 Z M 137.09375 -12.269531 " clip-rule="nonzero"/></clipPath><clipPath id="c125a2506e"><path d="M 137.09375 -12.269531 L 175.261719 95.152344 L 12.71875 152.90625 L -25.449219 45.484375 Z M 137.09375 -12.269531 " clip-rule="nonzero"/></clipPath><clipPath id="a9edbe28d3"><path d="M 6 23 L 123 23 L 123 135 L 6 135 Z M 6 23 " clip-rule="nonzero"/></clipPath><clipPath id="2f0d9fc299"><path d="M 137.09375 -12.269531 L 175.261719 95.152344 L 12.71875 152.90625 L -25.449219 45.484375 Z M 137.09375 -12.269531 " clip-rule="nonzero"/></clipPath><clipPath id="1db8364c47"><path d="M 137.09375 -12.269531 L 175.261719 95.152344 L 12.71875 152.90625 L -25.449219 45.484375 Z M 137.09375 -12.269531 " clip-rule="nonzero"/></clipPath><clipPath id="5a38ca3034"><path d="M 63 16 L 129 16 L 129 64 L 63 64 Z M 63 16 " clip-rule="nonzero"/></clipPath><clipPath id="175bddf05e"><path d="M 137.09375 -12.269531 L 175.261719 95.152344 L 12.71875 152.90625 L -25.449219 45.484375 Z M 137.09375 -12.269531 " clip-rule="nonzero"/></clipPath><clipPath id="43665c8908"><path d="M 137.09375 -12.269531 L 175.261719 95.152344 L 12.71875 152.90625 L -25.449219 45.484375 Z M 137.09375 -12.269531 " clip-rule="nonzero"/></clipPath><clipPath id="65dcf4f775"><path d="M 89 13 L 135 13 L 135 45 L 89 45 Z M 89 13 " clip-rule="nonzero"/></clipPath><clipPath id="c495861269"><path d="M 137.09375 -12.269531 L 175.261719 95.152344 L 12.71875 152.90625 L -25.449219 45.484375 Z M 137.09375 -12.269531 " clip-rule="nonzero"/></clipPath><clipPath id="3f4374ba72"><path d="M 137.09375 -12.269531 L 175.261719 95.152344 L 12.71875 152.90625 L -25.449219 45.484375 Z M 137.09375 -12.269531 " clip-rule="nonzero"/></clipPath><clipPath id="98842cc431"><path d="M 32 84 L 118 84 L 118 131 L 32 131 Z M 32 84 " clip-rule="nonzero"/></clipPath><clipPath id="e54b1a9103"><path d="M 137.09375 -12.269531 L 175.261719 95.152344 L 12.71875 152.90625 L -25.449219 45.484375 Z M 137.09375 -12.269531 " clip-rule="nonzero"/></clipPath><clipPath id="4913e2ce07"><path d="M 137.09375 -12.269531 L 175.261719 95.152344 L 12.71875 152.90625 L -25.449219 45.484375 Z M 137.09375 -12.269531 " clip-rule="nonzero"/></clipPath></defs><g clip-path="url(#3dbfbbe296)"><g clip-path="url(#83873cfa40)"><g clip-path="url(#e0ecb80454)"><path fill="#ffffff" d="M 98.777344 85.585938 C 98.429688 85.578125 98.070312 85.566406 97.695312 85.558594 C 97.511719 85.554688 97.324219 85.550781 97.132812 85.550781 C 96.769531 85.542969 96.394531 85.539062 96.011719 85.535156 C 95.800781 85.535156 95.585938 85.53125 95.371094 85.53125 C 94.976562 85.527344 94.566406 85.527344 94.152344 85.53125 C 93.933594 85.53125 93.71875 85.53125 93.496094 85.53125 C 93.039062 85.539062 92.5625 85.542969 92.089844 85.550781 C 91.898438 85.554688 91.710938 85.558594 91.515625 85.5625 C 90.160156 85.589844 88.734375 85.640625 87.257812 85.71875 C 87.050781 85.730469 86.832031 85.746094 86.621094 85.757812 C 86.09375 85.789062 85.5625 85.820312 85.027344 85.859375 C 84.75 85.878906 84.472656 85.898438 84.195312 85.921875 C 83.707031 85.957031 83.214844 85.996094 82.71875 86.042969 C 82.417969 86.070312 82.113281 86.097656 81.808594 86.125 C 81.328125 86.171875 80.839844 86.222656 80.355469 86.277344 C 80.035156 86.3125 79.71875 86.347656 79.402344 86.382812 C 78.90625 86.445312 78.40625 86.507812 77.90625 86.574219 C 77.601562 86.613281 77.296875 86.652344 76.988281 86.695312 C 76.4375 86.773438 75.886719 86.859375 75.335938 86.945312 C 75.074219 86.984375 74.816406 87.023438 74.554688 87.066406 C 72.933594 87.335938 71.308594 87.652344 69.691406 88.015625 C 69.4375 88.074219 69.191406 88.136719 68.9375 88.195312 C 68.382812 88.328125 67.832031 88.460938 67.277344 88.601562 C 66.976562 88.679688 66.679688 88.765625 66.378906 88.847656 C 65.882812 88.984375 65.382812 89.121094 64.890625 89.273438 C 64.574219 89.363281 64.261719 89.464844 63.953125 89.5625 C 63.476562 89.710938 63 89.867188 62.527344 90.03125 C 62.21875 90.136719 61.90625 90.246094 61.597656 90.355469 C 61.128906 90.527344 60.660156 90.707031 60.195312 90.890625 C 59.90625 91.003906 59.613281 91.117188 59.324219 91.238281 C 58.824219 91.445312 58.332031 91.664062 57.839844 91.886719 C 57.601562 91.996094 57.359375 92.097656 57.125 92.210938 C 55.695312 92.890625 54.320312 93.636719 53.015625 94.460938 C 52.804688 94.59375 52.601562 94.742188 52.390625 94.878906 C 51.960938 95.164062 51.53125 95.453125 51.117188 95.753906 C 50.882812 95.929688 50.652344 96.109375 50.421875 96.289062 C 50.054688 96.574219 49.691406 96.867188 49.339844 97.164062 C 49.105469 97.363281 48.882812 97.566406 48.65625 97.773438 C 48.324219 98.074219 48 98.386719 47.683594 98.707031 C 47.472656 98.921875 47.261719 99.140625 47.054688 99.359375 C 46.746094 99.699219 46.453125 100.046875 46.160156 100.398438 C 45.976562 100.621094 45.792969 100.839844 45.617188 101.070312 C 45.3125 101.464844 45.03125 101.875 44.753906 102.292969 C 44.617188 102.496094 44.472656 102.691406 44.34375 102.902344 C 43.949219 103.535156 43.582031 104.1875 43.25 104.867188 C 42.511719 106.371094 41.695312 107.839844 40.839844 109.289062 C 40.6875 109.546875 40.535156 109.808594 40.378906 110.066406 C 39.535156 111.445312 38.632812 112.796875 37.683594 114.109375 C 37.609375 114.210938 37.550781 114.320312 37.476562 114.417969 C 37.488281 114.425781 37.5 114.433594 37.511719 114.441406 C 37.625 114.5 37.753906 114.546875 37.867188 114.605469 C 38.355469 114.84375 38.855469 115.074219 39.378906 115.273438 C 39.605469 115.359375 39.847656 115.429688 40.078125 115.507812 C 40.511719 115.65625 40.945312 115.796875 41.398438 115.917969 C 41.671875 115.992188 41.953125 116.046875 42.234375 116.109375 C 42.671875 116.207031 43.113281 116.296875 43.566406 116.371094 C 43.867188 116.421875 44.175781 116.460938 44.488281 116.5 C 44.949219 116.554688 45.417969 116.601562 45.894531 116.632812 C 46.214844 116.65625 46.535156 116.679688 46.859375 116.691406 C 47.363281 116.710938 47.878906 116.710938 48.402344 116.703125 C 48.722656 116.703125 49.035156 116.703125 49.363281 116.691406 C 49.949219 116.667969 50.550781 116.617188 51.160156 116.566406 C 51.441406 116.542969 51.714844 116.53125 52 116.496094 C 52.90625 116.402344 53.828125 116.277344 54.777344 116.113281 C 54.78125 116.113281 54.789062 116.113281 54.796875 116.109375 C 56.40625 115.835938 57.957031 115.503906 59.472656 115.148438 C 59.773438 115.078125 60.082031 115.007812 60.378906 114.933594 C 61.835938 114.574219 63.253906 114.179688 64.625 113.753906 C 64.875 113.675781 65.117188 113.59375 65.363281 113.511719 C 66.664062 113.089844 67.929688 112.644531 69.152344 112.175781 C 69.28125 112.125 69.414062 112.078125 69.542969 112.03125 C 70.835938 111.519531 72.082031 110.980469 73.292969 110.417969 C 73.539062 110.304688 73.785156 110.191406 74.027344 110.074219 C 75.210938 109.511719 76.367188 108.929688 77.46875 108.328125 C 77.605469 108.25 77.734375 108.175781 77.867188 108.101562 C 78.910156 107.523438 79.914062 106.929688 80.882812 106.324219 C 81.03125 106.230469 81.1875 106.140625 81.335938 106.042969 C 82.347656 105.402344 83.316406 104.746094 84.25 104.085938 C 84.433594 103.957031 84.609375 103.824219 84.789062 103.695312 C 85.722656 103.019531 86.628906 102.335938 87.484375 101.652344 C 87.507812 101.632812 87.527344 101.613281 87.550781 101.59375 C 88.398438 100.910156 89.199219 100.226562 89.972656 99.542969 C 90.109375 99.425781 90.246094 99.304688 90.375 99.1875 C 91.128906 98.511719 91.84375 97.835938 92.527344 97.167969 C 92.644531 97.050781 92.753906 96.9375 92.871094 96.824219 C 93.539062 96.164062 94.175781 95.503906 94.773438 94.863281 C 94.792969 94.835938 94.820312 94.8125 94.839844 94.789062 C 95.457031 94.121094 96.027344 93.46875 96.574219 92.832031 C 96.667969 92.722656 96.765625 92.609375 96.859375 92.496094 C 97.378906 91.878906 97.871094 91.273438 98.324219 90.695312 C 98.375 90.625 98.425781 90.5625 98.476562 90.496094 C 98.910156 89.933594 99.320312 89.386719 99.691406 88.871094 C 99.726562 88.824219 99.761719 88.777344 99.792969 88.730469 C 100.183594 88.191406 100.53125 87.683594 100.855469 87.203125 C 100.898438 87.140625 100.941406 87.074219 100.980469 87.011719 C 101.292969 86.542969 101.582031 86.097656 101.828125 85.699219 C 101.449219 85.679688 101.035156 85.660156 100.589844 85.640625 C 100.523438 85.640625 100.441406 85.636719 100.371094 85.632812 C 100.007812 85.617188 99.628906 85.605469 99.230469 85.59375 C 99.089844 85.59375 98.929688 85.59375 98.777344 85.585938 Z M 98.777344 85.585938 " fill-opacity="1" fill-rule="nonzero"/></g></g></g><g clip-path="url(#5e09ee3fbe)"><g clip-path="url(#5e337607fa)"><g clip-path="url(#e6cdb70bef)"><path fill="#ffffff" d="M 138.738281 21.101562 C 139.347656 21.625 139.910156 22.136719 140.425781 22.640625 C 142.625 21.328125 146.003906 18.800781 146.480469 16.113281 C 146.707031 14.824219 146.210938 13.558594 144.957031 12.25 C 140.679688 7.769531 133.449219 11.828125 129.84375 14.351562 C 132.550781 16.074219 135.488281 18.3125 138.738281 21.101562 Z M 138.738281 21.101562 " fill-opacity="1" fill-rule="nonzero"/></g></g></g><g clip-path="url(#d795e9f54a)"><g clip-path="url(#11f611f32e)"><g clip-path="url(#c125a2506e)"><path fill="#ffffff" d="M 131.347656 29.386719 C 133.316406 31.203125 134.835938 32.90625 135.957031 34.519531 C 137.738281 34.011719 140.375 32.925781 140.847656 31.214844 C 141.308594 29.542969 139.664062 26.996094 136.21875 24.046875 C 125.25 14.652344 119.277344 12.785156 114.285156 14.273438 C 118.367188 17.125 122.382812 20.929688 126.695312 25.015625 C 128.191406 26.433594 129.738281 27.902344 131.347656 29.386719 Z M 131.347656 29.386719 " fill-opacity="1" fill-rule="nonzero"/></g></g></g><g clip-path="url(#a9edbe28d3)"><g clip-path="url(#2f0d9fc299)"><g clip-path="url(#1db8364c47)"><path fill="#ffffff" d="M 16.367188 72.296875 C 16.238281 76.289062 16.101562 80.417969 15.832031 84.761719 C 14.332031 109.046875 9.199219 126.734375 6.574219 134.433594 C 10.941406 132.414062 18.277344 128.453125 25.382812 122.035156 C 25.402344 122.015625 25.421875 122 25.441406 121.980469 C 26.851562 120.707031 28.203125 119.382812 29.480469 118.011719 C 30.761719 116.644531 31.972656 115.226562 33.101562 113.777344 C 35.695312 110.480469 37.9375 106.914062 39.765625 103.167969 C 52.453125 77.1875 103.082031 81.84375 105.230469 82.054688 C 105.316406 82.066406 105.40625 82.078125 105.492188 82.097656 C 105.535156 82.109375 105.785156 82.164062 106.191406 82.210938 C 106.257812 82.21875 106.339844 82.226562 106.414062 82.230469 C 106.492188 82.238281 106.5625 82.246094 106.648438 82.253906 C 106.699219 82.257812 106.761719 82.257812 106.816406 82.261719 C 106.941406 82.269531 107.0625 82.277344 107.203125 82.28125 C 107.21875 82.28125 107.242188 82.28125 107.257812 82.28125 C 107.644531 82.289062 108.074219 82.285156 108.550781 82.246094 C 108.59375 82.242188 108.644531 82.234375 108.691406 82.230469 C 108.894531 82.210938 109.105469 82.191406 109.324219 82.160156 C 109.382812 82.152344 109.445312 82.136719 109.503906 82.128906 C 109.71875 82.097656 109.933594 82.0625 110.152344 82.015625 C 110.222656 82 110.296875 81.980469 110.371094 81.960938 C 110.585938 81.910156 110.800781 81.863281 111.023438 81.800781 C 111.117188 81.773438 111.214844 81.734375 111.3125 81.707031 C 111.515625 81.640625 111.722656 81.578125 111.929688 81.5 C 112.042969 81.460938 112.15625 81.40625 112.269531 81.359375 C 112.464844 81.277344 112.660156 81.203125 112.859375 81.109375 C 112.980469 81.054688 113.101562 80.980469 113.222656 80.917969 C 113.414062 80.820312 113.609375 80.726562 113.804688 80.613281 C 113.929688 80.539062 114.054688 80.449219 114.183594 80.367188 C 114.375 80.25 114.5625 80.132812 114.75 80 C 114.886719 79.902344 115.023438 79.789062 115.15625 79.683594 C 115.335938 79.546875 115.515625 79.417969 115.691406 79.265625 C 115.832031 79.140625 115.96875 79 116.109375 78.867188 C 116.277344 78.710938 116.449219 78.5625 116.617188 78.386719 C 116.644531 78.355469 116.664062 78.339844 116.6875 78.308594 C 116.816406 78.152344 116.917969 78.039062 117 77.960938 C 117.007812 77.949219 117.019531 77.9375 117.03125 77.925781 C 119.378906 75.273438 121.054688 71.429688 122.015625 66.492188 C 122.011719 66.484375 122.007812 66.480469 122.003906 66.472656 C 121.988281 66.449219 121.964844 66.410156 121.945312 66.382812 C 121.835938 66.214844 121.714844 66.03125 121.566406 65.8125 C 121.507812 65.71875 121.425781 65.601562 121.355469 65.5 C 121.234375 65.316406 121.113281 65.136719 120.96875 64.929688 C 120.878906 64.792969 120.765625 64.636719 120.664062 64.488281 C 120.523438 64.285156 120.382812 64.078125 120.222656 63.855469 C 120.097656 63.675781 119.960938 63.480469 119.824219 63.292969 C 119.664062 63.066406 119.503906 62.839844 119.332031 62.601562 C 119.171875 62.386719 119.003906 62.152344 118.835938 61.925781 C 118.660156 61.683594 118.484375 61.441406 118.296875 61.1875 C 118.109375 60.941406 117.914062 60.679688 117.71875 60.417969 C 117.523438 60.15625 117.320312 59.890625 117.113281 59.617188 C 116.902344 59.34375 116.6875 59.066406 116.46875 58.785156 C 116.25 58.503906 116.023438 58.214844 115.792969 57.921875 C 115.5625 57.628906 115.324219 57.328125 115.078125 57.023438 C 114.839844 56.726562 114.589844 56.421875 114.339844 56.113281 C 114.085938 55.800781 113.824219 55.484375 113.558594 55.164062 C 113.300781 54.855469 113.035156 54.539062 112.765625 54.21875 C 112.484375 53.886719 112.199219 53.554688 111.90625 53.214844 C 111.632812 52.894531 111.34375 52.570312 111.0625 52.246094 C 110.757812 51.898438 110.449219 51.550781 110.132812 51.199219 C 109.839844 50.875 109.535156 50.542969 109.234375 50.214844 C 108.90625 49.855469 108.582031 49.5 108.246094 49.136719 C 107.929688 48.804688 107.605469 48.464844 107.28125 48.128906 C 106.933594 47.765625 106.59375 47.402344 106.234375 47.042969 C 105.902344 46.699219 105.550781 46.355469 105.207031 46.011719 C 104.84375 45.652344 104.488281 45.289062 104.117188 44.929688 C 103.757812 44.578125 103.378906 44.230469 103.015625 43.878906 C 102.640625 43.523438 102.273438 43.167969 101.890625 42.816406 C 101.175781 42.160156 100.445312 41.503906 99.703125 40.855469 C 99.308594 40.507812 98.898438 40.167969 98.496094 39.824219 C 98.0625 39.460938 97.636719 39.089844 97.199219 38.730469 C 96.796875 38.402344 96.386719 38.082031 95.980469 37.761719 C 95.542969 37.414062 95.113281 37.066406 94.667969 36.726562 C 94.253906 36.410156 93.824219 36.097656 93.398438 35.785156 C 92.949219 35.453125 92.503906 35.117188 92.046875 34.792969 C 91.613281 34.488281 91.171875 34.191406 90.730469 33.890625 C 90.265625 33.574219 89.804688 33.257812 89.332031 32.949219 C 88.886719 32.65625 88.433594 32.375 87.980469 32.09375 C 87.5 31.792969 87.019531 31.496094 86.535156 31.207031 C 86.074219 30.933594 85.605469 30.667969 85.136719 30.40625 C 84.644531 30.128906 84.148438 29.851562 83.648438 29.585938 C 83.175781 29.335938 82.699219 29.09375 82.222656 28.851562 C 81.710938 28.597656 81.199219 28.34375 80.679688 28.101562 C 80.199219 27.875 79.714844 27.65625 79.226562 27.445312 C 78.699219 27.214844 78.171875 26.992188 77.640625 26.777344 C 77.152344 26.578125 76.65625 26.386719 76.160156 26.199219 C 75.617188 26 75.070312 25.808594 74.519531 25.625 C 74.023438 25.457031 73.527344 25.292969 73.023438 25.136719 C 72.460938 24.96875 71.894531 24.816406 71.328125 24.664062 C 70.828125 24.53125 70.328125 24.394531 69.824219 24.277344 C 69.242188 24.140625 68.65625 24.027344 68.066406 23.914062 C 67.566406 23.816406 67.066406 23.714844 66.5625 23.632812 C 65.949219 23.535156 65.332031 23.464844 64.71875 23.390625 C 64.226562 23.332031 63.738281 23.261719 63.242188 23.222656 C 62.585938 23.164062 61.921875 23.144531 61.257812 23.117188 C 60.792969 23.097656 60.332031 23.0625 59.867188 23.058594 C 59.109375 23.054688 58.34375 23.089844 57.578125 23.125 C 57.199219 23.144531 56.824219 23.140625 56.445312 23.167969 C 55.292969 23.25 54.140625 23.378906 52.976562 23.5625 C 52.941406 23.566406 52.90625 23.574219 52.875 23.578125 C 52.460938 23.628906 52.035156 23.703125 51.625 23.789062 C 17.730469 30.203125 17.1875 46.949219 16.367188 72.296875 Z M 16.367188 72.296875 " fill-opacity="1" fill-rule="nonzero"/></g></g></g><g clip-path="url(#5a38ca3034)"><g clip-path="url(#175bddf05e)"><g clip-path="url(#43665c8908)"><path fill="#ffffff" d="M 63.507812 19.3125 C 63.683594 19.328125 63.859375 19.355469 64.039062 19.371094 C 64.980469 19.457031 65.921875 19.566406 66.851562 19.707031 C 67.207031 19.761719 67.5625 19.824219 67.917969 19.886719 C 68.671875 20.015625 69.421875 20.160156 70.167969 20.320312 C 70.542969 20.402344 70.921875 20.484375 71.296875 20.578125 C 72.042969 20.757812 72.78125 20.953125 73.515625 21.164062 C 73.847656 21.261719 74.183594 21.347656 74.515625 21.449219 C 75.476562 21.746094 76.425781 22.0625 77.371094 22.402344 C 77.457031 22.433594 77.542969 22.460938 77.628906 22.492188 C 78.660156 22.871094 79.675781 23.285156 80.679688 23.71875 C 80.980469 23.847656 81.273438 23.988281 81.574219 24.121094 C 82.277344 24.4375 82.976562 24.761719 83.671875 25.101562 C 84.019531 25.273438 84.367188 25.449219 84.710938 25.628906 C 85.359375 25.960938 86 26.300781 86.632812 26.648438 C 86.964844 26.832031 87.296875 27.011719 87.625 27.199219 C 88.332031 27.601562 89.027344 28.019531 89.714844 28.441406 C 89.949219 28.582031 90.1875 28.722656 90.417969 28.867188 C 91.328125 29.4375 92.222656 30.023438 93.105469 30.625 C 93.316406 30.769531 93.519531 30.917969 93.726562 31.0625 C 94.402344 31.53125 95.074219 32.007812 95.730469 32.492188 C 96.03125 32.714844 96.328125 32.9375 96.625 33.164062 C 97.1875 33.585938 97.742188 34.015625 98.292969 34.449219 C 98.59375 34.6875 98.894531 34.925781 99.195312 35.167969 C 99.75 35.617188 100.292969 36.066406 100.835938 36.523438 C 101.09375 36.742188 101.355469 36.957031 101.609375 37.179688 C 102.355469 37.820312 103.089844 38.464844 103.804688 39.113281 C 103.84375 39.148438 103.882812 39.183594 103.921875 39.214844 C 104.664062 39.890625 105.386719 40.570312 106.097656 41.253906 C 106.335938 41.484375 106.570312 41.714844 106.804688 41.941406 C 107.28125 42.40625 107.75 42.871094 108.210938 43.332031 C 108.46875 43.589844 108.71875 43.847656 108.972656 44.105469 C 109.410156 44.554688 109.839844 45 110.261719 45.445312 C 110.496094 45.6875 110.730469 45.933594 110.953125 46.175781 C 111.429688 46.683594 111.890625 47.183594 112.34375 47.6875 C 112.496094 47.855469 112.65625 48.023438 112.804688 48.191406 C 113.394531 48.851562 113.96875 49.5 114.523438 50.144531 C 114.683594 50.328125 114.835938 50.507812 114.992188 50.695312 C 115.386719 51.160156 115.777344 51.621094 116.15625 52.074219 C 116.347656 52.304688 116.535156 52.535156 116.726562 52.761719 C 117.054688 53.164062 117.375 53.554688 117.683594 53.941406 C 117.863281 54.167969 118.046875 54.394531 118.222656 54.613281 C 118.539062 55.015625 118.84375 55.40625 119.144531 55.792969 C 119.285156 55.976562 119.429688 56.15625 119.566406 56.335938 C 119.984375 56.882812 120.390625 57.414062 120.769531 57.921875 C 120.828125 58 120.875 58.070312 120.933594 58.144531 C 121.257812 58.582031 121.566406 59 121.855469 59.402344 C 121.988281 59.585938 122.109375 59.753906 122.234375 59.929688 C 122.441406 60.21875 122.640625 60.496094 122.832031 60.765625 C 122.953125 60.9375 123.066406 61.101562 123.179688 61.261719 C 123.351562 61.507812 123.511719 61.742188 123.667969 61.964844 C 123.773438 62.117188 123.875 62.273438 123.972656 62.414062 C 124.125 62.640625 124.261719 62.839844 124.394531 63.042969 C 124.46875 63.148438 124.542969 63.261719 124.609375 63.363281 C 124.613281 63.367188 124.613281 63.367188 124.617188 63.371094 C 125.890625 62.34375 127.621094 60.542969 128.179688 58.027344 C 128.53125 56.445312 128.386719 54.75 127.75 52.957031 C 127.210938 51.4375 126.316406 49.847656 125.070312 48.195312 C 124.164062 46.980469 123.035156 45.722656 121.738281 44.445312 C 121.058594 43.769531 120.34375 43.09375 119.5625 42.410156 C 108.023438 32.320312 94.179688 23.863281 84.601562 18.539062 C 79.332031 15.621094 73.117188 15.269531 67.554688 17.574219 L 63.382812 19.300781 C 63.421875 19.300781 63.464844 19.308594 63.507812 19.3125 Z M 63.507812 19.3125 " fill-opacity="1" fill-rule="nonzero"/></g></g></g><g clip-path="url(#65dcf4f775)"><g clip-path="url(#c495861269)"><g clip-path="url(#3f4374ba72)"><path fill="#ffffff" d="M 89.777344 17.011719 C 90.3125 17.320312 90.863281 17.644531 91.417969 17.96875 C 92.1875 18.417969 92.957031 18.867188 93.757812 19.34375 C 94.332031 19.6875 94.914062 20.042969 95.503906 20.402344 C 96.320312 20.894531 97.136719 21.402344 97.976562 21.921875 C 98.585938 22.304688 99.195312 22.691406 99.816406 23.085938 C 100.664062 23.621094 101.511719 24.171875 102.371094 24.734375 C 103.003906 25.148438 103.632812 25.5625 104.273438 25.988281 C 105.144531 26.574219 106.019531 27.171875 106.898438 27.78125 C 107.53125 28.21875 108.160156 28.648438 108.796875 29.097656 C 109.707031 29.738281 110.605469 30.398438 111.515625 31.066406 C 112.117188 31.507812 112.71875 31.941406 113.320312 32.394531 C 114.3125 33.140625 115.285156 33.90625 116.265625 34.675781 C 116.769531 35.074219 117.28125 35.460938 117.78125 35.863281 C 119.25 37.046875 120.699219 38.253906 122.113281 39.492188 C 122.691406 39.996094 123.238281 40.5 123.769531 41 C 123.945312 41.167969 124.109375 41.335938 124.28125 41.5 C 124.621094 41.835938 124.960938 42.171875 125.28125 42.503906 C 125.46875 42.695312 125.648438 42.890625 125.828125 43.085938 C 126.113281 43.390625 126.386719 43.695312 126.652344 44 C 126.824219 44.199219 126.992188 44.398438 127.15625 44.59375 C 127.257812 44.71875 127.371094 44.84375 127.472656 44.964844 C 129.675781 44.597656 133.472656 43.539062 134.207031 41.378906 C 134.425781 40.734375 134.375 39.960938 134.058594 39.078125 C 133.398438 37.21875 131.582031 34.875 128.722656 32.242188 C 127.101562 30.742188 125.542969 29.265625 124.03125 27.832031 C 111.742188 16.191406 103.386719 8.273438 89.273438 16.722656 C 89.433594 16.808594 89.613281 16.917969 89.777344 17.011719 Z M 89.777344 17.011719 " fill-opacity="1" fill-rule="nonzero"/></g></g></g><g clip-path="url(#98842cc431)"><g clip-path="url(#e54b1a9103)"><g clip-path="url(#4913e2ce07)"><path fill="#ffffff" d="M 105.917969 86.472656 C 105.828125 86.632812 105.726562 86.804688 105.621094 86.992188 C 105.582031 87.054688 105.546875 87.113281 105.507812 87.179688 C 105.394531 87.375 105.265625 87.589844 105.128906 87.808594 C 105.09375 87.867188 105.0625 87.925781 105.023438 87.988281 C 104.855469 88.261719 104.675781 88.546875 104.480469 88.847656 C 104.476562 88.859375 104.46875 88.871094 104.460938 88.878906 C 104.050781 89.519531 103.582031 90.214844 103.054688 90.964844 C 103 91.039062 102.941406 91.125 102.886719 91.203125 C 102.679688 91.488281 102.46875 91.78125 102.246094 92.082031 C 102.15625 92.203125 102.0625 92.328125 101.96875 92.449219 C 101.769531 92.71875 101.5625 92.988281 101.347656 93.265625 C 101.234375 93.410156 101.121094 93.554688 101.003906 93.703125 C 100.792969 93.96875 100.578125 94.238281 100.355469 94.511719 C 100.226562 94.667969 100.097656 94.824219 99.964844 94.984375 C 99.738281 95.257812 99.5 95.539062 99.257812 95.820312 C 99.121094 95.976562 98.988281 96.136719 98.847656 96.292969 C 98.589844 96.585938 98.324219 96.882812 98.054688 97.179688 C 97.914062 97.335938 97.777344 97.488281 97.632812 97.644531 C 97.324219 97.980469 97.003906 98.316406 96.679688 98.652344 C 96.5625 98.773438 96.453125 98.894531 96.332031 99.015625 C 95.878906 99.484375 95.410156 99.949219 94.925781 100.421875 C 94.894531 100.449219 94.863281 100.476562 94.835938 100.507812 C 94.382812 100.941406 93.917969 101.378906 93.4375 101.816406 C 93.273438 101.964844 93.101562 102.117188 92.9375 102.265625 C 92.582031 102.585938 92.21875 102.902344 91.847656 103.222656 C 91.640625 103.402344 91.425781 103.582031 91.210938 103.757812 C 90.863281 104.046875 90.515625 104.339844 90.15625 104.628906 C 89.921875 104.816406 89.683594 105.007812 89.441406 105.195312 C 89.082031 105.476562 88.71875 105.757812 88.347656 106.039062 C 88.097656 106.226562 87.84375 106.414062 87.589844 106.601562 C 87.210938 106.878906 86.824219 107.15625 86.433594 107.429688 C 86.167969 107.617188 85.902344 107.804688 85.628906 107.988281 C 85.222656 108.265625 84.804688 108.542969 84.382812 108.816406 C 84.113281 108.992188 83.847656 109.167969 83.574219 109.339844 C 83.101562 109.640625 82.613281 109.9375 82.121094 110.230469 C 81.882812 110.371094 81.65625 110.515625 81.414062 110.65625 C 80.675781 111.085938 79.925781 111.511719 79.152344 111.925781 C 79.097656 111.957031 79.039062 111.980469 78.988281 112.011719 C 78.265625 112.394531 77.53125 112.773438 76.777344 113.144531 C 76.503906 113.277344 76.21875 113.40625 75.941406 113.535156 C 75.394531 113.796875 74.847656 114.054688 74.285156 114.304688 C 73.953125 114.453125 73.609375 114.59375 73.269531 114.738281 C 72.742188 114.964844 72.210938 115.1875 71.671875 115.402344 C 71.304688 115.550781 70.929688 115.691406 70.558594 115.835938 C 70.023438 116.039062 69.480469 116.238281 68.929688 116.433594 C 68.542969 116.574219 68.148438 116.707031 67.753906 116.84375 C 67.195312 117.03125 66.625 117.214844 66.054688 117.394531 C 65.652344 117.519531 65.253906 117.640625 64.84375 117.761719 C 64.246094 117.9375 63.632812 118.105469 63.019531 118.273438 C 62.621094 118.378906 62.226562 118.488281 61.824219 118.589844 C 61.136719 118.765625 60.433594 118.921875 59.726562 119.082031 C 59.378906 119.160156 59.039062 119.242188 58.683594 119.316406 C 57.617188 119.542969 56.53125 119.753906 55.421875 119.945312 C 55.378906 119.949219 55.34375 119.953125 55.300781 119.960938 C 54.261719 120.136719 53.242188 120.273438 52.25 120.375 C 51.90625 120.414062 51.578125 120.421875 51.238281 120.453125 C 50.554688 120.507812 49.875 120.558594 49.214844 120.582031 C 48.832031 120.59375 48.464844 120.582031 48.085938 120.585938 C 47.496094 120.585938 46.902344 120.585938 46.328125 120.554688 C 45.945312 120.539062 45.574219 120.5 45.199219 120.46875 C 44.65625 120.425781 44.117188 120.371094 43.59375 120.300781 C 43.222656 120.25 42.859375 120.1875 42.496094 120.121094 C 41.992188 120.03125 41.496094 119.929688 41.007812 119.816406 C 40.65625 119.730469 40.308594 119.640625 39.96875 119.542969 C 39.492188 119.40625 39.027344 119.257812 38.570312 119.09375 C 38.242188 118.980469 37.917969 118.863281 37.601562 118.734375 C 37.152344 118.550781 36.714844 118.347656 36.285156 118.140625 C 35.984375 117.996094 35.683594 117.855469 35.398438 117.699219 C 35.285156 117.636719 35.167969 117.589844 35.058594 117.53125 C 34.953125 117.65625 34.839844 117.777344 34.730469 117.90625 C 34.230469 118.503906 33.714844 119.089844 33.191406 119.675781 C 33.019531 119.863281 32.863281 120.0625 32.691406 120.25 C 41.007812 120.070312 46.757812 125.976562 49.570312 130.878906 C 56.03125 126.164062 62.367188 124.171875 68.425781 124.945312 C 73.21875 125.558594 76.808594 127.796875 79.082031 129.695312 C 80.722656 121.671875 84.023438 116.417969 88.925781 114.054688 C 93.710938 111.746094 98.804688 112.796875 102.09375 113.992188 C 101.167969 106.730469 102.46875 101.515625 105.980469 98.464844 C 109.402344 95.488281 114.09375 95.332031 117.574219 95.777344 C 115.042969 91.125 114.332031 87.445312 114.441406 84.644531 C 114.324219 84.699219 114.207031 84.738281 114.089844 84.792969 C 113.84375 84.898438 113.601562 85.003906 113.359375 85.09375 C 113.195312 85.15625 113.035156 85.210938 112.871094 85.265625 C 112.636719 85.34375 112.40625 85.421875 112.175781 85.488281 C 112.011719 85.535156 111.851562 85.578125 111.691406 85.621094 C 111.46875 85.675781 111.25 85.730469 111.035156 85.773438 C 110.875 85.808594 110.71875 85.839844 110.566406 85.867188 C 110.355469 85.90625 110.144531 85.941406 109.941406 85.96875 C 109.792969 85.992188 109.644531 86.011719 109.5 86.027344 C 109.296875 86.050781 109.105469 86.070312 108.914062 86.085938 C 108.777344 86.097656 108.636719 86.109375 108.503906 86.117188 C 108.320312 86.125 108.140625 86.132812 107.964844 86.136719 C 107.839844 86.140625 107.710938 86.144531 107.59375 86.144531 C 107.421875 86.148438 107.261719 86.140625 107.101562 86.140625 C 106.992188 86.136719 106.882812 86.132812 106.78125 86.132812 C 106.628906 86.125 106.488281 86.113281 106.347656 86.101562 C 106.273438 86.097656 106.191406 86.097656 106.125 86.089844 C 106.089844 86.15625 106.042969 86.234375 106.003906 86.300781 C 105.980469 86.363281 105.949219 86.414062 105.917969 86.472656 Z M 105.917969 86.472656 " fill-opacity="1" fill-rule="nonzero"/></g></g></g></svg>