<svg xmlns="http://www.w3.org/2000/svg" xmlns:xlink="http://www.w3.org/1999/xlink" width="200" zoomAndPan="magnify" viewBox="0 0 150 149.999998" height="200" preserveAspectRatio="xMidYMid meet" version="1.0"><defs><clipPath id="3a59631b4f"><path d="M 3.152344 3.152344 L 147 3.152344 L 147 147 L 3.152344 147 Z M 3.152344 3.152344 " clip-rule="nonzero"/></clipPath></defs><path fill="#ffffff" d="M 54.996094 65.347656 L 59.328125 71.894531 L 63.660156 65.347656 Z M 54.996094 65.347656 " fill-opacity="1" fill-rule="nonzero"/><path fill="#ffffff" d="M 102.683594 65.347656 L 100.605469 65.347656 L 93.632812 75.886719 L 100.472656 86.226562 L 102.679688 86.226562 L 110.988281 75.785156 Z M 102.683594 65.347656 " fill-opacity="1" fill-rule="nonzero"/><path fill="#ffffff" d="M 74.574219 56.835938 L 71.855469 60.945312 L 78.46875 60.945312 L 75.75 56.835938 C 75.464844 56.410156 74.851562 56.414062 74.574219 56.835938 Z M 74.574219 56.835938 " fill-opacity="1" fill-rule="nonzero"/><path fill="#ffffff" d="M 98.109375 90.628906 L 83.878906 90.628906 L 79.421875 97.367188 C 77.410156 100.414062 72.925781 100.425781 70.902344 97.367188 L 66.441406 90.628906 L 52.214844 90.628906 L 51.433594 91.808594 L 66.992188 111.351562 L 82.679688 111.351562 L 98.59375 91.359375 Z M 98.109375 90.628906 " fill-opacity="1" fill-rule="nonzero"/><path fill="#ffffff" d="M 49.847656 86.226562 L 56.6875 75.886719 L 49.714844 65.347656 L 46.988281 65.347656 L 38.679688 75.785156 L 46.992188 86.226562 Z M 49.847656 86.226562 " fill-opacity="1" fill-rule="nonzero"/><path fill="#ffffff" d="M 86.660156 65.347656 L 90.992188 71.894531 L 95.324219 65.347656 Z M 86.660156 65.347656 " fill-opacity="1" fill-rule="nonzero"/><path fill="#ffffff" d="M 88.355469 75.886719 L 81.382812 65.347656 L 68.941406 65.347656 L 61.96875 75.886719 L 68.808594 86.226562 L 81.515625 86.226562 Z M 88.355469 75.886719 " fill-opacity="1" fill-rule="nonzero"/><path fill="#ffffff" d="M 52.082031 60.945312 L 66.574219 60.945312 L 70.902344 54.40625 C 72.925781 51.347656 77.410156 51.359375 79.421875 54.40625 L 83.746094 60.945312 L 98.238281 60.945312 L 98.664062 60.300781 L 82.839844 40.421875 L 66.832031 40.421875 L 51.359375 59.855469 Z M 52.082031 60.945312 " fill-opacity="1" fill-rule="nonzero"/><path fill="#ffffff" d="M 90.992188 79.875 L 86.792969 86.226562 L 95.195312 86.226562 Z M 90.992188 79.875 " fill-opacity="1" fill-rule="nonzero"/><path fill="#ffffff" d="M 75.75 94.9375 L 78.601562 90.628906 L 71.722656 90.628906 L 74.574219 94.9375 C 74.9375 95.488281 75.382812 95.488281 75.75 94.9375 Z M 75.75 94.9375 " fill-opacity="1" fill-rule="nonzero"/><path fill="#ffffff" d="M 63.527344 86.226562 L 59.328125 79.875 L 55.128906 86.226562 Z M 63.527344 86.226562 " fill-opacity="1" fill-rule="nonzero"/><g clip-path="url(#3a59631b4f)"><path fill="#ffffff" d="M 137.144531 103.601562 L 144.734375 103.601562 C 145.902344 103.601562 146.84375 102.65625 146.84375 101.492188 L 146.84375 48.457031 C 146.84375 47.292969 145.902344 46.347656 144.734375 46.347656 L 137.144531 46.347656 C 135.980469 46.347656 135.035156 47.292969 135.035156 48.457031 L 135.035156 60.136719 C 135.035156 61.300781 134.089844 62.246094 132.925781 62.246094 L 132.519531 62.246094 C 131.355469 62.246094 130.410156 61.300781 130.410156 60.136719 L 130.410156 22.59375 C 130.410156 21.429688 129.464844 20.484375 128.300781 20.484375 L 89.863281 20.484375 C 88.695312 20.484375 87.75 19.539062 87.75 18.375 L 87.75 17.070312 C 87.75 15.90625 88.695312 14.960938 89.863281 14.960938 L 101.539062 14.960938 C 102.703125 14.960938 103.648438 14.015625 103.648438 12.847656 L 103.648438 5.261719 C 103.648438 4.097656 102.703125 3.152344 101.539062 3.152344 L 48.460938 3.152344 C 47.292969 3.152344 46.351562 4.097656 46.351562 5.261719 L 46.351562 12.847656 C 46.351562 14.015625 47.292969 14.960938 48.460938 14.960938 L 60.496094 14.960938 C 61.660156 14.960938 62.605469 15.90625 62.605469 17.070312 L 62.605469 18.375 C 62.605469 19.539062 61.660156 20.484375 60.496094 20.484375 L 22.234375 20.484375 C 21.070312 20.484375 20.125 21.429688 20.125 22.59375 L 20.125 60.136719 C 20.125 61.300781 19.179688 62.246094 18.015625 62.246094 L 17.070312 62.246094 C 15.90625 62.246094 14.960938 61.300781 14.960938 60.136719 L 14.960938 48.457031 C 14.960938 47.292969 14.015625 46.347656 12.851562 46.347656 L 5.261719 46.347656 C 4.097656 46.347656 3.152344 47.292969 3.152344 48.457031 L 3.152344 101.492188 C 3.152344 102.65625 4.097656 103.601562 5.261719 103.601562 L 12.851562 103.601562 C 14.015625 103.601562 14.960938 102.65625 14.960938 101.492188 L 14.960938 89.457031 C 14.960938 88.292969 15.90625 87.347656 17.070312 87.347656 L 18.015625 87.347656 C 19.179688 87.347656 20.125 88.292969 20.125 89.457031 L 20.125 128.660156 C 20.125 129.824219 21.070312 130.769531 22.234375 130.769531 L 60.496094 130.769531 C 61.660156 130.769531 62.605469 131.714844 62.605469 132.878906 C 62.605469 134.046875 61.660156 134.992188 60.496094 134.992188 L 48.460938 134.992188 C 47.292969 134.992188 46.351562 135.933594 46.351562 137.101562 L 46.351562 144.734375 C 46.351562 145.902344 47.292969 146.847656 48.460938 146.847656 L 101.539062 146.847656 C 102.703125 146.847656 103.648438 145.902344 103.648438 144.734375 L 103.648438 137.101562 C 103.648438 135.933594 102.703125 134.992188 101.539062 134.992188 L 89.863281 134.992188 C 88.695312 134.992188 87.75 134.046875 87.75 132.878906 C 87.75 131.714844 88.695312 130.769531 89.863281 130.769531 L 128.300781 130.769531 C 129.464844 130.769531 130.410156 129.824219 130.410156 128.660156 L 130.410156 89.457031 C 130.410156 88.292969 131.355469 87.347656 132.519531 87.347656 L 132.925781 87.347656 C 134.089844 87.347656 135.035156 88.292969 135.035156 89.457031 L 135.035156 101.492188 C 135.035156 102.65625 135.980469 103.601562 137.144531 103.601562 Z M 121.832031 82.335938 C 124.496094 85.679688 122.113281 90.628906 117.835938 90.628906 L 104.804688 90.628906 L 104.03125 91.597656 L 114.769531 107.828125 C 117.011719 111.21875 114.578125 115.757812 110.503906 115.757812 L 84.804688 115.757812 L 78.832031 123.257812 C 76.789062 125.828125 72.886719 125.828125 70.839844 123.257812 L 64.867188 115.757812 L 39.816406 115.757812 C 35.753906 115.757812 33.308594 111.230469 35.554688 107.828125 L 45.996094 92.046875 L 44.867188 90.628906 L 31.835938 90.628906 C 27.566406 90.628906 25.171875 85.691406 27.839844 82.335938 L 33.050781 75.785156 L 27.839844 69.234375 C 25.171875 65.878906 27.566406 60.945312 31.835938 60.945312 L 44.867188 60.945312 L 45.921875 59.617188 L 35.554688 43.945312 C 33.3125 40.546875 35.746094 36.015625 39.816406 36.015625 L 64.707031 36.015625 L 70.839844 28.3125 C 72.789062 25.859375 76.890625 25.871094 78.832031 28.3125 L 84.964844 36.015625 L 110.503906 36.015625 C 114.574219 36.015625 117.015625 40.550781 114.769531 43.945312 L 104.105469 60.0625 L 104.804688 60.945312 L 117.835938 60.945312 C 119.8125 60.945312 121.578125 62.050781 122.4375 63.835938 C 123.296875 65.617188 123.066406 67.6875 121.832031 69.234375 L 116.617188 75.785156 Z M 121.832031 82.335938 " fill-opacity="1" fill-rule="nonzero"/></g><path fill="#ffffff" d="M 39.226562 110.257812 C 38.917969 110.726562 39.25 111.351562 39.816406 111.351562 L 61.363281 111.351562 L 48.878906 95.667969 Z M 39.226562 110.257812 " fill-opacity="1" fill-rule="nonzero"/><path fill="#ffffff" d="M 74.285156 120.515625 C 74.660156 120.984375 75.023438 120.976562 75.386719 120.515625 L 79.175781 115.757812 L 70.496094 115.757812 Z M 74.285156 120.515625 " fill-opacity="1" fill-rule="nonzero"/><path fill="#ffffff" d="M 88.308594 111.351562 L 110.503906 111.351562 C 111.074219 111.351562 111.40625 110.726562 111.09375 110.257812 L 101.148438 95.222656 Z M 88.308594 111.351562 " fill-opacity="1" fill-rule="nonzero"/><path fill="#ffffff" d="M 108.308594 86.226562 L 117.835938 86.226562 C 118.425781 86.226562 118.757812 85.546875 118.386719 85.078125 L 113.804688 79.320312 Z M 108.308594 86.226562 " fill-opacity="1" fill-rule="nonzero"/><path fill="#ffffff" d="M 117.835938 65.347656 L 108.3125 65.347656 L 113.804688 72.25 L 118.386719 66.492188 C 118.628906 66.191406 118.542969 65.898438 118.46875 65.746094 C 118.398438 65.597656 118.222656 65.347656 117.835938 65.347656 Z M 117.835938 65.347656 " fill-opacity="1" fill-rule="nonzero"/><path fill="#ffffff" d="M 41.359375 65.347656 L 31.835938 65.347656 C 31.242188 65.347656 30.914062 66.027344 31.285156 66.492188 L 35.867188 72.25 Z M 41.359375 65.347656 " fill-opacity="1" fill-rule="nonzero"/><path fill="#ffffff" d="M 75.386719 31.054688 C 75.109375 30.703125 74.570312 30.695312 74.285156 31.054688 L 70.335938 36.015625 L 79.335938 36.015625 Z M 75.386719 31.054688 " fill-opacity="1" fill-rule="nonzero"/><path fill="#ffffff" d="M 61.203125 40.421875 C 39.21875 40.652344 39.605469 40.023438 39.195312 40.792969 C 39.121094 40.929688 39.023438 41.210938 39.226562 41.515625 L 48.804688 55.992188 Z M 61.203125 40.421875 " fill-opacity="1" fill-rule="nonzero"/><path fill="#ffffff" d="M 111.09375 41.515625 C 111.40625 41.046875 111.078125 40.421875 110.503906 40.421875 L 88.46875 40.421875 L 101.21875 56.441406 Z M 111.09375 41.515625 " fill-opacity="1" fill-rule="nonzero"/><path fill="#ffffff" d="M 31.285156 85.078125 C 30.917969 85.542969 31.242188 86.226562 31.835938 86.226562 L 41.363281 86.226562 L 35.867188 79.320312 Z M 31.285156 85.078125 " fill-opacity="1" fill-rule="nonzero"/></svg>