<svg xmlns="http://www.w3.org/2000/svg" xmlns:xlink="http://www.w3.org/1999/xlink" width="200" zoomAndPan="magnify" viewBox="0 0 150 149.999998" height="200" preserveAspectRatio="xMidYMid meet" version="1.0"><defs><clipPath id="08099d7111"><path d="M 4.5625 4.5625 L 145.5625 4.5625 L 145.5625 145.5625 L 4.5625 145.5625 Z M 4.5625 4.5625 " clip-rule="nonzero"/></clipPath></defs><g clip-path="url(#08099d7111)"><path fill="#ffffff" d="M 131.132812 132.960938 C 130.148438 127.992188 129.902344 94.09375 129.84375 77.488281 C 129.824219 72.441406 125.726562 68.359375 120.679688 68.359375 L 81.617188 68.359375 L 81.617188 39.75 C 81.617188 38.921875 82.277344 38.246094 83.105469 38.226562 L 115.636719 37.484375 C 132.472656 37.101562 145.429688 22.398438 143.574219 5.664062 C 143.542969 5.363281 143.507812 5.054688 143.464844 4.75 C 143.464844 4.75 139.578125 17.546875 132.960938 18.855469 C 127.992188 19.84375 94.097656 20.085938 77.488281 20.148438 C 72.441406 20.164062 68.359375 24.265625 68.359375 29.3125 L 68.359375 68.375 L 42.773438 68.375 C 40.265625 68.375 38.21875 66.371094 38.160156 63.863281 L 37.488281 34.355469 C 37.105469 17.519531 22.398438 4.5625 5.664062 6.414062 C 5.363281 6.449219 5.058594 6.484375 4.753906 6.527344 C 4.753906 6.527344 17.546875 10.414062 18.859375 17.027344 C 19.808594 21.832031 20.074219 53.652344 20.144531 70.777344 C 20.171875 76.78125 25.046875 81.636719 31.046875 81.636719 L 68.378906 81.636719 L 68.378906 107.21875 C 68.378906 109.726562 66.371094 111.777344 63.863281 111.835938 L 34.355469 112.507812 C 17.523438 112.890625 4.5625 127.59375 6.417969 144.332031 C 6.453125 144.632812 6.488281 144.9375 6.53125 145.242188 C 6.53125 145.242188 10.414062 132.449219 17.03125 131.136719 C 21.832031 130.183594 53.65625 129.921875 70.777344 129.851562 C 76.785156 129.824219 81.636719 124.949219 81.636719 118.949219 L 81.636719 81.617188 L 110.246094 81.617188 C 111.074219 81.617188 111.75 82.28125 111.769531 83.105469 L 112.507812 115.640625 C 112.890625 132.472656 127.597656 145.433594 144.332031 143.578125 C 144.632812 143.542969 144.941406 143.507812 145.246094 143.464844 C 145.242188 143.460938 132.445312 139.578125 131.132812 132.960938 Z M 131.132812 132.960938 " fill-opacity="1" fill-rule="nonzero"/></g><path fill="#ffffff" d="M 61.429688 51.617188 C 61.429688 52.089844 61.382812 52.558594 61.292969 53.023438 C 61.199219 53.484375 61.0625 53.9375 60.882812 54.371094 C 60.699219 54.808594 60.480469 55.222656 60.214844 55.617188 C 59.953125 56.011719 59.65625 56.375 59.320312 56.707031 C 58.988281 57.042969 58.625 57.339844 58.230469 57.601562 C 57.839844 57.867188 57.421875 58.085938 56.988281 58.269531 C 56.550781 58.449219 56.101562 58.585938 55.636719 58.679688 C 55.171875 58.769531 54.703125 58.816406 54.230469 58.816406 C 53.757812 58.816406 53.292969 58.769531 52.828125 58.679688 C 52.363281 58.585938 51.914062 58.449219 51.476562 58.269531 C 51.042969 58.085938 50.625 57.867188 50.234375 57.601562 C 49.839844 57.339844 49.476562 57.042969 49.144531 56.707031 C 48.808594 56.375 48.511719 56.011719 48.246094 55.617188 C 47.984375 55.222656 47.761719 54.808594 47.582031 54.371094 C 47.402344 53.9375 47.265625 53.484375 47.171875 53.023438 C 47.082031 52.558594 47.035156 52.089844 47.035156 51.617188 C 47.035156 51.144531 47.082031 50.679688 47.171875 50.214844 C 47.265625 49.75 47.402344 49.300781 47.582031 48.863281 C 47.761719 48.425781 47.984375 48.011719 48.246094 47.621094 C 48.511719 47.226562 48.808594 46.863281 49.144531 46.527344 C 49.476562 46.195312 49.839844 45.898438 50.234375 45.632812 C 50.625 45.371094 51.042969 45.148438 51.476562 44.96875 C 51.914062 44.789062 52.363281 44.652344 52.828125 44.558594 C 53.292969 44.46875 53.757812 44.421875 54.230469 44.421875 C 54.703125 44.421875 55.171875 44.46875 55.636719 44.558594 C 56.101562 44.652344 56.550781 44.789062 56.988281 44.96875 C 57.421875 45.148438 57.839844 45.371094 58.230469 45.632812 C 58.625 45.898438 58.988281 46.195312 59.320312 46.527344 C 59.65625 46.863281 59.953125 47.226562 60.214844 47.621094 C 60.480469 48.011719 60.699219 48.425781 60.882812 48.863281 C 61.0625 49.300781 61.199219 49.75 61.292969 50.214844 C 61.382812 50.679688 61.429688 51.144531 61.429688 51.617188 Z M 61.429688 51.617188 " fill-opacity="1" fill-rule="nonzero"/><path fill="#ffffff" d="M 105.597656 51.617188 C 105.597656 52.089844 105.550781 52.558594 105.457031 53.023438 C 105.367188 53.484375 105.230469 53.9375 105.046875 54.371094 C 104.867188 54.808594 104.644531 55.222656 104.382812 55.617188 C 104.121094 56.011719 103.820312 56.375 103.488281 56.707031 C 103.152344 57.042969 102.789062 57.339844 102.398438 57.601562 C 102.003906 57.867188 101.589844 58.085938 101.152344 58.269531 C 100.714844 58.449219 100.265625 58.585938 99.800781 58.679688 C 99.339844 58.769531 98.871094 58.816406 98.398438 58.816406 C 97.925781 58.816406 97.457031 58.769531 96.996094 58.679688 C 96.53125 58.585938 96.082031 58.449219 95.644531 58.269531 C 95.207031 58.085938 94.792969 57.867188 94.398438 57.601562 C 94.007812 57.339844 93.644531 57.042969 93.308594 56.707031 C 92.976562 56.375 92.675781 56.011719 92.414062 55.617188 C 92.152344 55.222656 91.929688 54.808594 91.75 54.371094 C 91.566406 53.9375 91.429688 53.484375 91.339844 53.023438 C 91.246094 52.558594 91.199219 52.089844 91.199219 51.617188 C 91.199219 51.144531 91.246094 50.679688 91.339844 50.214844 C 91.429688 49.75 91.566406 49.300781 91.75 48.863281 C 91.929688 48.425781 92.152344 48.011719 92.414062 47.621094 C 92.675781 47.226562 92.976562 46.863281 93.308594 46.527344 C 93.644531 46.195312 94.007812 45.898438 94.398438 45.632812 C 94.792969 45.371094 95.207031 45.148438 95.644531 44.96875 C 96.082031 44.789062 96.53125 44.652344 96.996094 44.558594 C 97.457031 44.46875 97.925781 44.421875 98.398438 44.421875 C 98.871094 44.421875 99.339844 44.46875 99.800781 44.558594 C 100.265625 44.652344 100.714844 44.789062 101.152344 44.96875 C 101.589844 45.148438 102.003906 45.371094 102.398438 45.632812 C 102.789062 45.898438 103.152344 46.195312 103.488281 46.527344 C 103.820312 46.863281 104.121094 47.226562 104.382812 47.621094 C 104.644531 48.011719 104.867188 48.425781 105.046875 48.863281 C 105.230469 49.300781 105.367188 49.75 105.457031 50.214844 C 105.550781 50.679688 105.597656 51.144531 105.597656 51.617188 Z M 105.597656 51.617188 " fill-opacity="1" fill-rule="nonzero"/><path fill="#ffffff" d="M 61.429688 95.308594 C 61.429688 95.78125 61.382812 96.246094 61.292969 96.710938 C 61.199219 97.175781 61.0625 97.625 60.882812 98.0625 C 60.699219 98.5 60.480469 98.914062 60.214844 99.304688 C 59.953125 99.699219 59.65625 100.0625 59.320312 100.398438 C 58.988281 100.730469 58.625 101.03125 58.230469 101.292969 C 57.839844 101.554688 57.421875 101.777344 56.988281 101.957031 C 56.550781 102.136719 56.101562 102.273438 55.636719 102.367188 C 55.171875 102.457031 54.703125 102.503906 54.230469 102.503906 C 53.757812 102.503906 53.292969 102.457031 52.828125 102.367188 C 52.363281 102.273438 51.914062 102.136719 51.476562 101.957031 C 51.042969 101.777344 50.625 101.554688 50.234375 101.292969 C 49.839844 101.03125 49.476562 100.730469 49.144531 100.398438 C 48.808594 100.0625 48.511719 99.699219 48.246094 99.304688 C 47.984375 98.914062 47.761719 98.5 47.582031 98.0625 C 47.402344 97.625 47.265625 97.175781 47.171875 96.710938 C 47.082031 96.246094 47.035156 95.78125 47.035156 95.308594 C 47.035156 94.835938 47.082031 94.367188 47.171875 93.902344 C 47.265625 93.441406 47.402344 92.988281 47.582031 92.554688 C 47.761719 92.117188 47.984375 91.703125 48.246094 91.308594 C 48.511719 90.914062 48.808594 90.550781 49.144531 90.21875 C 49.476562 89.882812 49.839844 89.585938 50.234375 89.324219 C 50.625 89.058594 51.042969 88.839844 51.476562 88.65625 C 51.914062 88.476562 52.363281 88.339844 52.828125 88.25 C 53.292969 88.15625 53.757812 88.109375 54.230469 88.109375 C 54.703125 88.109375 55.171875 88.15625 55.636719 88.25 C 56.101562 88.339844 56.550781 88.476562 56.988281 88.65625 C 57.421875 88.839844 57.839844 89.058594 58.230469 89.324219 C 58.625 89.585938 58.988281 89.882812 59.320312 90.21875 C 59.65625 90.550781 59.953125 90.914062 60.214844 91.308594 C 60.480469 91.703125 60.699219 92.117188 60.882812 92.554688 C 61.0625 92.988281 61.199219 93.441406 61.292969 93.902344 C 61.382812 94.367188 61.429688 94.835938 61.429688 95.308594 Z M 61.429688 95.308594 " fill-opacity="1" fill-rule="nonzero"/><path fill="#ffffff" d="M 105.597656 95.308594 C 105.597656 95.78125 105.550781 96.246094 105.457031 96.710938 C 105.367188 97.175781 105.230469 97.625 105.046875 98.0625 C 104.867188 98.5 104.644531 98.914062 104.382812 99.304688 C 104.121094 99.699219 103.820312 100.0625 103.488281 100.398438 C 103.152344 100.730469 102.789062 101.03125 102.398438 101.292969 C 102.003906 101.554688 101.589844 101.777344 101.152344 101.957031 C 100.714844 102.136719 100.265625 102.273438 99.800781 102.367188 C 99.339844 102.457031 98.871094 102.503906 98.398438 102.503906 C 97.925781 102.503906 97.457031 102.457031 96.996094 102.367188 C 96.53125 102.273438 96.082031 102.136719 95.644531 101.957031 C 95.207031 101.777344 94.792969 101.554688 94.398438 101.292969 C 94.007812 101.03125 93.644531 100.730469 93.308594 100.398438 C 92.976562 100.0625 92.675781 99.699219 92.414062 99.304688 C 92.152344 98.914062 91.929688 98.5 91.75 98.0625 C 91.566406 97.625 91.429688 97.175781 91.339844 96.710938 C 91.246094 96.246094 91.199219 95.78125 91.199219 95.308594 C 91.199219 94.835938 91.246094 94.367188 91.339844 93.902344 C 91.429688 93.441406 91.566406 92.988281 91.75 92.554688 C 91.929688 92.117188 92.152344 91.703125 92.414062 91.308594 C 92.675781 90.914062 92.976562 90.550781 93.308594 90.21875 C 93.644531 89.882812 94.007812 89.585938 94.398438 89.324219 C 94.792969 89.058594 95.207031 88.839844 95.644531 88.65625 C 96.082031 88.476562 96.53125 88.339844 96.996094 88.25 C 97.457031 88.15625 97.925781 88.109375 98.398438 88.109375 C 98.871094 88.109375 99.339844 88.15625 99.800781 88.25 C 100.265625 88.339844 100.714844 88.476562 101.152344 88.65625 C 101.589844 88.839844 102.003906 89.058594 102.398438 89.324219 C 102.789062 89.585938 103.152344 89.882812 103.488281 90.21875 C 103.820312 90.550781 104.121094 90.914062 104.382812 91.308594 C 104.644531 91.703125 104.867188 92.117188 105.046875 92.554688 C 105.230469 92.988281 105.367188 93.441406 105.457031 93.902344 C 105.550781 94.367188 105.597656 94.835938 105.597656 95.308594 Z M 105.597656 95.308594 " fill-opacity="1" fill-rule="nonzero"/></svg>